<svg width="360" height="58" viewBox="0 0 360 58" fill="none" xmlns="http://www.w3.org/2000/svg">
<g clip-path="url(#clip0_169_2)">
<path d="M55.818 23.5779C55.7 23.2159 55.387 22.9519 55.01 22.8969L36.92 20.2679L28.83 3.87587C28.662 3.53387 28.314 3.31787 27.934 3.31787C27.554 3.31787 27.205 3.53387 27.038 3.87587L18.947 20.2689L0.857026 22.8979C0.480026 22.9529 0.168026 23.2159 0.0490256 23.5789C-0.0679744 23.9399 0.0290256 24.3379 0.302026 24.6029L13.393 37.3629L10.302 55.3809C10.238 55.7559 10.392 56.1349 10.699 56.3589C11.008 56.5849 11.417 56.6139 11.752 56.4349L27.934 47.9289L44.114 56.4349C44.26 56.5119 44.421 56.5499 44.58 56.5499C44.787 56.5499 44.993 56.4859 45.168 56.3589C45.476 56.1349 45.63 55.7559 45.565 55.3809L42.475 37.3639L55.566 24.6029C55.838 24.3359 55.936 23.9389 55.818 23.5779Z" fill="#2F759E"/>
</g>
<g clip-path="url(#clip1_169_2)">
<path d="M131.818 22.5779C131.7 22.2159 131.387 21.9519 131.01 21.8969L112.92 19.2679L104.83 2.87587C104.662 2.53387 104.314 2.31787 103.934 2.31787C103.554 2.31787 103.205 2.53387 103.038 2.87587L94.947 19.2689L76.857 21.8979C76.48 21.9529 76.168 22.2159 76.049 22.5789C75.932 22.9399 76.029 23.3379 76.302 23.6029L89.393 36.3629L86.302 54.3809C86.238 54.7559 86.392 55.1349 86.699 55.3589C87.008 55.5849 87.417 55.6139 87.752 55.4349L103.934 46.9289L120.114 55.4349C120.26 55.5119 120.421 55.5499 120.58 55.5499C120.787 55.5499 120.993 55.4859 121.168 55.3589C121.476 55.1349 121.63 54.7559 121.565 54.3809L118.475 36.3639L131.566 23.6029C131.838 23.3359 131.936 22.9389 131.818 22.5779Z" fill="#2F759E"/>
<g clip-path="url(#clip2_169_2)">
<path d="M131.818 22.5779C131.7 22.2159 131.387 21.9519 131.01 21.8969L112.92 19.2679L104.83 2.87587C104.662 2.53387 104.314 2.31787 103.934 2.31787C103.554 2.31787 103.205 2.53387 103.038 2.87587L94.947 19.2689L76.857 21.8979C76.48 21.9529 76.168 22.2159 76.049 22.5789C75.932 22.9399 76.029 23.3379 76.302 23.6029L89.393 36.3629L86.302 54.3809C86.238 54.7559 86.392 55.1349 86.699 55.3589C87.008 55.5849 87.417 55.6139 87.752 55.4349L103.934 46.9289L120.114 55.4349C120.26 55.5119 120.421 55.5499 120.58 55.5499C120.787 55.5499 120.993 55.4859 121.168 55.3589C121.476 55.1349 121.63 54.7559 121.565 54.3809L118.475 36.3639L131.566 23.6029C131.838 23.3359 131.936 22.9389 131.818 22.5779Z" fill="#2F759E"/>
</g>
</g>
<g clip-path="url(#clip3_169_2)">
<path d="M207.818 21.5779C207.7 21.2159 207.387 20.9519 207.01 20.8969L188.92 18.2679L180.83 1.87587C180.662 1.53387 180.314 1.31787 179.934 1.31787C179.554 1.31787 179.205 1.53387 179.038 1.87587L170.947 18.2689L152.857 20.8979C152.48 20.9529 152.168 21.2159 152.049 21.5789C151.932 21.9399 152.029 22.3379 152.302 22.6029L165.393 35.3629L162.302 53.3809C162.238 53.7559 162.392 54.1349 162.699 54.3589C163.008 54.5849 163.417 54.6139 163.752 54.4349L179.934 45.9289L196.114 54.4349C196.26 54.5119 196.421 54.5499 196.58 54.5499C196.787 54.5499 196.993 54.4859 197.168 54.3589C197.476 54.1349 197.63 53.7559 197.565 53.3809L194.475 35.3639L207.566 22.6029C207.838 22.3359 207.936 21.9389 207.818 21.5779Z" fill="#2F759E"/>
<g clip-path="url(#clip4_169_2)">
<path d="M207.818 21.5779C207.7 21.2159 207.387 20.9519 207.01 20.8969L188.92 18.2679L180.83 1.87587C180.662 1.53387 180.314 1.31787 179.934 1.31787C179.554 1.31787 179.205 1.53387 179.038 1.87587L170.947 18.2689L152.857 20.8979C152.48 20.9529 152.168 21.2159 152.049 21.5789C151.932 21.9399 152.029 22.3379 152.302 22.6029L165.393 35.3629L162.302 53.3809C162.238 53.7559 162.392 54.1349 162.699 54.3589C163.008 54.5849 163.417 54.6139 163.752 54.4349L179.934 45.9289L196.114 54.4349C196.26 54.5119 196.421 54.5499 196.58 54.5499C196.787 54.5499 196.993 54.4859 197.168 54.3589C197.476 54.1349 197.63 53.7559 197.565 53.3809L194.475 35.3639L207.566 22.6029C207.838 22.3359 207.936 21.9389 207.818 21.5779Z" fill="#2F759E"/>
</g>
</g>
<g clip-path="url(#clip5_169_2)">
<path d="M283.818 23.5779C283.7 23.2159 283.387 22.9519 283.01 22.8969L264.92 20.2679L256.83 3.87587C256.662 3.53387 256.314 3.31787 255.934 3.31787C255.554 3.31787 255.205 3.53387 255.038 3.87587L246.947 20.2689L228.857 22.8979C228.48 22.9529 228.168 23.2159 228.049 23.5789C227.932 23.9399 228.029 24.3379 228.302 24.6029L241.393 37.3629L238.302 55.3809C238.238 55.7559 238.392 56.1349 238.699 56.3589C239.008 56.5849 239.417 56.6139 239.752 56.4349L255.934 47.9289L272.114 56.4349C272.26 56.5119 272.421 56.5499 272.58 56.5499C272.787 56.5499 272.993 56.4859 273.168 56.3589C273.476 56.1349 273.63 55.7559 273.565 55.3809L270.475 37.3639L283.566 24.6029C283.838 24.3359 283.936 23.9389 283.818 23.5779Z" fill="#2F759E"/>
</g>
<g clip-path="url(#clip6_169_2)">
<path d="M359.818 23.5779C359.7 23.2159 359.387 22.9519 359.01 22.8969L340.92 20.2679L332.83 3.87587C332.662 3.53387 332.314 3.31787 331.934 3.31787C331.554 3.31787 331.205 3.53387 331.038 3.87587L322.947 20.2689L304.857 22.8979C304.48 22.9529 304.168 23.2159 304.049 23.5789C303.932 23.9399 304.029 24.3379 304.302 24.6029L317.393 37.3629L314.302 55.3809C314.238 55.7559 314.392 56.1349 314.699 56.3589C315.008 56.5849 315.417 56.6139 315.752 56.4349L331.934 47.9289L348.114 56.4349C348.26 56.5119 348.421 56.5499 348.58 56.5499C348.787 56.5499 348.993 56.4859 349.168 56.3589C349.476 56.1349 349.63 55.7559 349.565 55.3809L346.475 37.3639L359.566 24.6029C359.838 24.3359 359.936 23.9389 359.818 23.5779Z" fill="#2F759E"/>
</g>
<defs>
<clipPath id="clip0_169_2">
<rect width="55.867" height="55.867" fill="white" transform="translate(0 2)"/>
</clipPath>
<clipPath id="clip1_169_2">
<rect width="55.867" height="55.867" fill="white" transform="translate(76 1)"/>
</clipPath>
<clipPath id="clip2_169_2">
<rect width="55.867" height="55.867" fill="white" transform="translate(76 1)"/>
</clipPath>
<clipPath id="clip3_169_2">
<rect width="55.867" height="55.867" fill="white" transform="translate(152)"/>
</clipPath>
<clipPath id="clip4_169_2">
<rect width="55.867" height="55.867" fill="white" transform="translate(152)"/>
</clipPath>
<clipPath id="clip5_169_2">
<rect width="55.867" height="55.867" fill="white" transform="translate(228 2)"/>
</clipPath>
<clipPath id="clip6_169_2">
<rect width="55.867" height="55.867" fill="white" transform="translate(304 2)"/>
</clipPath>
</defs>
</svg>
