<svg width="140" height="140" viewBox="0 0 140 140" fill="none" xmlns="http://www.w3.org/2000/svg">
<path d="M135.215 29.337V21.0018H4.77895V29.337H0V119.002H140V29.337H135.215ZM9.44002 29.337V25.6689H67.6625V29.337V110.835H9.44002V29.337ZM77.7898 29.337V54.3226L85.2778 49.0722L92.7779 54.3226V29.337V25.6689H130.55V29.337V110.835H72.3295V29.337V25.6689H77.7878V29.337H77.7898ZM15.5456 84.6765H61.2872V89.3436H15.5456V84.6765ZM15.12 97.2592H60.8617V101.926H15.12V97.2592ZM20.764 55.1717L21.9588 51.4516H28.8875L30.1242 55.1717H32.146H34.1699L27.7087 36.905H25.4931H23.2814L16.8222 55.1717H18.7961H20.764ZM25.4391 40.9807L27.8605 48.315H23.0117L25.4391 40.9807ZM60.8577 41.3983H36.9469V36.7332H60.8597V41.3983H60.8577ZM60.8577 53.3117H36.9469V48.6446H60.8597V53.3117H60.8577ZM60.8577 65.2191H15.9631V60.552H60.8577V65.2191ZM60.8577 77.1285H15.9631V72.4634H60.8577V77.1285ZM102.849 88.2627C102.448 88.6044 101.928 88.8181 101.299 88.8841V84.1011C102.042 84.3429 102.586 84.6166 102.921 84.9542C103.359 85.3638 103.576 85.8792 103.576 86.5126C103.571 87.2558 103.333 87.8292 102.849 88.2627ZM100.184 80.4969C99.6966 80.2912 99.305 80.0814 99.0173 79.8536C98.5019 79.454 98.2322 78.9706 98.2322 78.3972C98.2322 77.7119 98.4639 77.1705 98.9214 76.7929C99.2491 76.5092 99.6686 76.3353 100.184 76.2634V80.4969ZM86.3527 85.1041L82.5328 91.5992L90.0029 92.5921L90.2906 100.122L97.0994 96.9096L101.419 103.085L105.425 96.7098L112.397 99.5628L112.311 92.0347L119.721 90.6662L115.574 84.3848L121.08 79.2263L114.185 76.1835L116.031 68.8812L108.583 70.026L106.178 62.8915L100.536 67.8803L94.6519 63.1812L92.6081 70.4236L85.116 69.6404L87.3177 76.8508L80.5948 80.2492L86.3527 85.1041ZM94.7419 85.7754L98.0743 85.8073C98.0743 85.8173 98.0743 85.8253 98.0743 85.8353H98.1023C98.0563 86.8862 98.2461 87.6634 98.6937 88.1508C99.0313 88.5245 99.5228 88.7422 100.13 88.8481L100.18 83.7375C98.4479 83.1961 97.1893 82.5707 96.4101 81.8615C95.549 81.0823 95.1374 80.0574 95.1374 78.7807C95.1374 77.2144 95.6449 75.9737 96.6698 75.0627C97.1333 74.6471 97.6827 74.3434 98.2921 74.1137C98.5099 74.0318 98.7796 74.0218 99.0193 73.9678C99.4029 73.8779 99.7585 73.7601 100.186 73.7281V72.0119H100.292V72.0039L100.843 72.0079H101.299V72.0179H101.401L101.381 73.7021C101.82 73.7261 102.156 73.838 102.54 73.9199C102.831 73.9838 103.177 74.0018 103.441 74.0897C104.078 74.3115 104.635 74.6271 105.091 75.0427C106.074 75.9258 106.553 77.1744 106.545 78.7887L103.411 78.7548C103.411 78.7468 103.411 78.7408 103.411 78.7328H103.369C103.369 77.8298 103.177 77.1844 102.785 76.7909C102.486 76.4892 102 76.3174 101.363 76.2554L101.313 80.8765L101.419 80.9145L101.593 80.9724C103.507 81.5179 104.855 82.2071 105.656 83.0103C106.449 83.8114 106.851 84.8923 106.851 86.2828C106.851 87.8971 106.314 89.1678 105.217 90.1168C105.197 90.1347 105.171 90.1348 105.153 90.1527C105.121 90.1867 105.085 90.1947 105.057 90.2167C104.579 90.6022 104.044 90.9199 103.435 91.1417C103.103 91.2476 102.701 91.2735 102.342 91.3435C101.986 91.4074 101.673 91.5113 101.289 91.5353V93.9187H101.193V93.9227L100.638 93.9187H100.178V93.9128H100.082L100.106 91.5433C99.7146 91.5093 99.4169 91.3974 99.0633 91.3295C98.6637 91.2476 98.2022 91.2156 97.8466 91.0738C97.3051 90.872 96.8596 90.5683 96.444 90.2306C96.3581 90.1627 96.2483 90.1348 96.1663 90.0668C96.1663 90.0668 96.1663 90.0628 96.1564 90.0628C96.1384 90.0428 96.1124 90.0388 96.0924 90.0209C95.1634 89.1418 94.7039 87.8591 94.7179 86.2049L94.7419 85.7754Z" fill="black"/>
</svg>
