<svg width="200" height="200" viewBox="0 0 200 200" fill="none" xmlns="http://www.w3.org/2000/svg">
<path d="M184.985 91.7124C189.833 86.2395 192.335 79.3592 192.335 72.0098C192.335 55.591 178.887 42.1432 162.468 42.1432C159.497 42.1432 156.526 42.6123 153.868 43.3942C154.493 40.8923 154.806 38.3903 154.806 35.8884C154.806 17.7495 140.107 3.05078 121.968 3.05078C111.022 3.05078 100.702 8.52372 94.76 17.5932C88.818 11.3384 80.6868 7.74187 71.9301 7.74187C55.3549 7.74187 41.7507 20.4078 40.8125 36.983C29.7102 40.4231 21.8918 50.7435 21.8918 62.4713C21.8918 65.9114 22.5172 69.1952 23.7682 72.4789C10.164 75.1372 0 87.3341 0 101.564C0 117.983 13.2914 131.274 29.7102 131.274H29.8666C31.4303 142.845 41.2816 151.602 53.1657 151.602C62.8606 151.602 71.1482 145.816 74.7447 137.372C87.8798 151.602 88.9744 172.868 88.9744 195.386C88.9744 196.324 89.5999 196.949 90.5381 196.949H118.841C119.31 196.949 119.623 196.793 119.936 196.48C120.248 196.167 120.405 195.698 120.405 195.386C120.405 195.073 119.779 162.548 130.881 147.849C133.071 148.318 135.26 148.631 137.449 148.631C146.049 148.631 154.337 145.035 160.279 138.623C164.345 140.969 168.879 142.22 173.57 142.22C188.113 142.22 199.997 130.336 199.997 115.793C200.153 105.317 194.211 96.0908 184.985 91.7124ZM117.277 193.822H92.1018C92.1018 170.679 90.5381 148.787 75.8393 134.089C76.3084 132.212 76.6212 130.179 76.6212 128.147C76.6212 125.332 76.1521 122.517 75.2138 120.015C78.3412 121.735 81.7814 122.83 85.3779 123.299C93.1964 128.928 102.266 150.351 103.36 158.013C103.517 158.795 104.142 159.264 104.768 159.421C104.768 159.421 104.768 159.421 104.924 159.421C105.706 159.421 106.331 158.951 106.488 158.17C106.488 158.013 109.928 144.565 113.837 137.372C117.59 141.751 122.437 145.191 128.067 147.067C117.903 160.984 117.277 187.098 117.277 193.822ZM90.2253 123.455C96.011 123.299 101.797 121.423 106.488 117.983C106.488 124.081 108.364 129.71 111.648 134.558C108.833 139.092 106.331 146.442 104.924 151.602C102.266 143.158 96.4801 130.179 90.2253 123.455ZM173.727 138.936C169.192 138.936 164.814 137.685 161.061 135.183C161.061 135.183 160.904 135.183 160.748 135.027C158.559 133.62 156.526 131.743 154.962 129.554C154.493 128.928 153.399 128.772 152.773 129.241C152.148 129.71 151.991 130.805 152.46 131.43C154.024 133.463 155.744 135.183 157.777 136.747C152.46 142.22 145.267 145.347 137.605 145.347C135.26 145.347 133.071 145.034 130.881 144.565H130.725C118.528 141.438 109.459 130.492 109.459 117.357C109.459 116.575 109.459 115.793 109.615 114.855C109.615 114.699 109.615 114.542 109.615 114.386C110.241 107.975 113.055 102.033 117.746 97.4981C118.372 96.8726 118.372 95.9344 117.746 95.3089C117.121 94.6834 116.183 94.6834 115.557 95.3089C110.553 100.313 107.426 107.037 106.644 114.073C101.64 117.983 95.5419 120.328 89.1307 120.328C82.7196 120.328 76.4648 117.983 71.461 113.604C71.3046 113.604 71.3046 113.448 71.1482 113.448C65.6753 108.444 62.5479 101.251 62.5479 93.7452C62.5479 91.0869 63.017 88.2723 63.7988 85.7704C64.1116 84.9885 63.6425 84.0503 62.7043 83.7376C61.9224 83.4248 60.9842 83.8939 60.6715 84.8321C59.8896 87.6468 59.4205 90.7742 59.4205 93.7452C59.4205 102.189 63.017 110.32 69.4282 115.95C72.0864 119.546 73.4938 123.612 73.4938 127.99C73.4938 139.249 64.4243 148.318 53.1657 148.318C43.0017 148.318 34.5577 140.813 33.1504 130.961C38.1542 130.336 42.8453 128.616 46.9109 125.645C47.6928 125.176 47.8491 124.237 47.2237 123.455C46.7545 122.674 45.8163 122.517 45.0345 123.143C40.9689 125.957 36.2778 127.677 31.4303 127.99C31.4303 127.99 31.4303 127.99 31.2739 127.99C31.2739 127.99 31.2739 127.99 31.1176 127.99H30.6485C30.3357 127.99 29.8666 127.99 29.5539 127.99C15.0115 128.147 3.12739 116.262 3.12739 101.564C3.12739 88.2723 13.1351 76.8573 26.4265 75.1372H26.5829C31.4303 74.5117 36.2778 75.2936 40.6561 77.3264C40.8125 77.4828 41.1252 77.4828 41.2816 77.4828C41.9071 77.4828 42.3762 77.17 42.6889 76.5445C43.0017 75.7627 42.6889 74.8245 41.9071 74.5117C37.216 72.3226 32.2122 71.5407 27.052 72.0098C25.6446 69.0388 25.0192 65.755 25.0192 62.4713C25.0192 51.8381 32.2122 42.456 42.5326 39.7977C42.5326 39.7977 42.6889 39.7977 42.6889 39.6413C44.5654 39.1722 46.4418 39.0158 48.3182 39.0158C52.853 39.0158 57.2313 40.2668 60.9842 42.7687C61.2969 42.9251 61.6097 43.0814 61.766 43.0814C62.2351 43.0814 62.7043 42.7687 63.017 42.2996C63.4861 41.5177 63.3297 40.5795 62.5479 40.1104C58.6386 37.2957 53.6348 35.8884 48.4746 35.8884C46.9109 35.8884 45.5036 36.0448 43.9399 36.3575C45.3472 21.9715 57.2313 10.8693 71.9301 10.8693C80.374 10.8693 88.1925 14.6221 93.5091 21.0333C93.5091 21.0333 93.5091 21.1897 93.6655 21.1897C95.5419 23.5352 97.1056 26.1935 98.2002 29.0082C98.5129 29.6336 98.982 29.9464 99.6075 29.9464C99.7639 29.9464 99.9202 29.9464 100.233 29.79C101.015 29.4773 101.484 28.539 101.171 27.7572C100.077 25.0989 98.5129 22.597 96.7929 20.2515C102.266 11.6511 111.804 6.17818 121.968 6.17818C138.387 6.17818 151.679 19.4696 151.679 35.8884C151.679 39.0158 151.21 42.2996 150.115 45.2706C150.115 45.2706 150.115 45.2706 150.115 45.427C146.049 57.4674 134.791 65.5987 121.968 65.5987C121.03 65.5987 120.405 66.2241 120.405 67.1624C120.405 68.1006 121.03 68.7261 121.968 68.7261C135.729 68.7261 148.082 60.1257 152.773 47.147C155.901 45.8961 159.184 45.2706 162.625 45.2706C177.323 45.2706 189.364 57.3111 189.364 72.0098C189.364 78.8901 186.705 85.4576 182.014 90.4615C179.356 89.5232 176.541 89.0541 173.727 89.0541C172.789 89.0541 172.163 89.6796 172.163 90.6178C172.163 91.556 172.789 92.1815 173.727 92.1815C176.541 92.1815 179.2 92.6506 181.858 93.5889C190.927 97.029 197.182 105.786 197.182 115.481C197.026 128.459 186.549 138.936 173.727 138.936Z" fill="black"/>
<path d="M99.1384 43.7068C96.4801 42.6122 93.5091 42.1431 90.6944 42.1431C77.7158 42.1431 67.239 52.6198 67.239 65.5985C67.239 70.6024 68.8027 75.4498 71.7737 79.5154C72.0864 79.9845 72.5556 80.1409 73.0247 80.1409C73.3374 80.1409 73.6501 79.9845 73.9629 79.8282C74.5884 79.3591 74.7447 78.2645 74.2756 77.639C71.6173 74.0425 70.3664 69.9769 70.3664 65.5985C70.3664 54.3399 79.4358 45.2705 90.6944 45.2705C93.1964 45.2705 95.6983 45.7396 98.0438 46.6778C98.8257 46.9905 99.7639 46.5214 100.077 45.7396C100.389 44.8014 100.077 44.0195 99.1384 43.7068Z" fill="black"/>
</svg>
