<svg width="40" height="40" viewBox="0 0 40 40" fill="none" xmlns="http://www.w3.org/2000/svg">
<path d="M7.78667 8.66666L7.23133 5.33333H5.238C4.94067 4.18666 3.906 3.33333 2.66667 3.33333C1.196 3.33333 0 4.52933 0 5.99999C0 7.47066 1.196 8.66666 2.66667 8.66666C3.906 8.66666 4.94067 7.81333 5.23867 6.66666H6.10133L6.43467 8.66666H6.40933L9.85667 26.0107C8.21333 26.136 6.84467 27.4013 6.68333 28.9933C6.58867 29.93 6.89667 30.868 7.52867 31.5653C8.16133 32.2647 9.06267 32.6667 10 32.6667H11.3333C11.3333 34.8727 13.1273 36.6667 15.3333 36.6667C17.5393 36.6667 19.3333 34.8727 19.3333 32.6667H26.6667C26.6667 34.8727 28.4607 36.6667 30.6667 36.6667C32.8727 36.6667 34.6667 34.8727 34.6667 32.6667H37.3333C37.702 32.6667 38 32.3687 38 32C38 31.6313 37.702 31.3333 37.3333 31.3333H34.4333C33.8827 29.782 32.4047 28.6667 30.6667 28.6667C28.9287 28.6667 27.4507 29.782 26.9 31.3333H19.1C18.5493 29.782 17.0713 28.6667 15.3333 28.6667C13.5953 28.6667 12.1173 29.782 11.5667 31.3333H10C9.43867 31.3333 8.89867 31.092 8.51733 30.6713C8.13267 30.2453 7.952 29.6973 8.01 29.1273C8.11133 28.1213 9.04067 27.334 10.1253 27.334H10.6527C10.662 27.334 10.6693 27.334 10.6787 27.334H36.6747C38.5087 27.3333 40 25.842 40 24.0087V8.66666H7.78667ZM2.66667 7.33333C1.93133 7.33333 1.33333 6.73533 1.33333 5.99999C1.33333 5.26466 1.93133 4.66666 2.66667 4.66666C3.402 4.66666 4 5.26466 4 5.99999C4 6.73533 3.402 7.33333 2.66667 7.33333ZM30.6667 30C32.1373 30 33.3333 31.196 33.3333 32.6667C33.3333 34.1373 32.1373 35.3333 30.6667 35.3333C29.196 35.3333 28 34.1373 28 32.6667C28 31.196 29.196 30 30.6667 30ZM15.3333 30C16.804 30 18 31.196 18 32.6667C18 34.1373 16.804 35.3333 15.3333 35.3333C13.8627 35.3333 12.6667 34.1373 12.6667 32.6667C12.6667 31.196 13.8627 30 15.3333 30ZM38.6667 24.0087C38.6667 25.1067 37.7733 26 36.6753 26H11.214L8.034 9.99999H38.6667V24.0087Z" fill="black"/>
</svg>
