<svg width="150" height="150" viewBox="0 0 150 150" fill="none" xmlns="http://www.w3.org/2000/svg">
<g clip-path="url(#clip0_132_38)">
<path d="M74.999 0C33.6447 0 0.00170898 33.6448 0.00170898 74.9991C0.00170898 116.355 33.6447 150 74.999 150C116.353 150 149.998 116.355 149.998 74.9991C149.998 33.6448 116.352 0 74.999 0ZM74.999 139.157C39.6247 139.157 10.8431 110.375 10.8431 74.9991C10.8431 39.623 39.6229 10.8432 74.999 10.8432C110.375 10.8432 139.155 39.623 139.155 74.9991C139.155 110.375 110.375 139.157 74.999 139.157Z" fill="black"/>
<path d="M96.7 81.9026C96.671 81.9026 96.6457 81.9026 96.6168 81.9026L80.4206 82.1448V39.7585C80.4206 36.764 77.9936 34.3369 74.999 34.3369C72.0045 34.3369 69.5774 36.764 69.5774 39.7585V87.6495C69.5774 87.6604 69.581 87.6712 69.581 87.6821C69.581 87.7001 69.5774 87.7164 69.5774 87.7308C69.581 87.9513 69.6226 88.1592 69.6515 88.3706C69.6696 88.5025 69.6714 88.6381 69.6967 88.7682C69.7455 89.0013 69.8268 89.2182 69.9045 89.4369C69.9443 89.5507 69.9696 89.67 70.0165 89.7784C70.1105 90.0007 70.237 90.2031 70.3581 90.4109C70.4141 90.5031 70.4557 90.6043 70.5153 90.6947C70.6527 90.8953 70.8171 91.0742 70.9798 91.2567C71.0485 91.3326 71.1045 91.4194 71.1768 91.4935C71.3521 91.6669 71.5491 91.8133 71.746 91.9633C71.8256 92.023 71.896 92.0953 71.9774 92.1513C72.1906 92.2959 72.4237 92.4097 72.6569 92.5218C72.7382 92.5597 72.8105 92.6139 72.8936 92.6483C73.1647 92.7621 73.4539 92.8416 73.7466 92.9121C73.8008 92.9248 73.8514 92.9501 73.9075 92.9609C74.2581 93.0314 74.6213 93.0711 74.9936 93.0711C75.0207 93.0711 75.0496 93.0711 75.0767 93.0711L96.7777 92.7458C99.7704 92.7007 102.161 90.2356 102.118 87.2429C102.076 84.2773 99.6565 81.9026 96.7 81.9026Z" fill="black"/>
</g>
<defs>
<clipPath id="clip0_132_38">
<rect width="150" height="150" fill="white"/>
</clipPath>
</defs>
</svg>
