<svg width="500" height="500" viewBox="0 0 500 500" fill="none" xmlns="http://www.w3.org/2000/svg">
<path d="M27.3501 208.53C29.8775 183.626 38.5532 159.741 52.5974 139.02C66.6416 118.299 85.6142 101.393 107.81 89.82C147.114 69.3838 189.997 56.7353 234.1 52.57C354 41.32 387.75 102.78 408 158.24C428.25 213.7 494.19 307.39 487.45 399.58C487.45 399.58 482.2 450.58 462.71 473.78H26.4901C26.4901 473.78 1.0001 439.3 28.0001 374.1C55.0001 308.9 19.0001 305.89 25.7501 225.7C26.2601 219.58 26.8001 213.87 27.3501 208.53Z" fill="#4FCC9F"/>
<path opacity="0.7" d="M27.3501 208.53C29.8775 183.626 38.5532 159.741 52.5974 139.02C66.6416 118.299 85.6142 101.393 107.81 89.82C147.114 69.3838 189.997 56.7353 234.1 52.57C354 41.32 387.75 102.78 408 158.24C428.25 213.7 494.19 307.39 487.45 399.58C487.45 399.58 482.2 450.58 462.71 473.78H26.4901C26.4901 473.78 1.0001 439.3 28.0001 374.1C55.0001 308.9 19.0001 305.89 25.7501 225.7C26.2601 219.58 26.8001 213.87 27.3501 208.53Z" fill="white"/>
<g opacity="0.3">
<path d="M105.85 28.81H39.2305V124.17H105.85V28.81Z" stroke="black" stroke-linecap="round" stroke-linejoin="round"/>
<path d="M177.05 28.81H110.43V124.17H177.05V28.81Z" stroke="black" stroke-linecap="round" stroke-linejoin="round"/>
<path d="M248.241 28.81H181.621V124.17H248.241V28.81Z" stroke="black" stroke-linecap="round" stroke-linejoin="round"/>
<path d="M105.85 128.74H39.2305V224.1H105.85V128.74Z" stroke="black" stroke-linecap="round" stroke-linejoin="round"/>
<path d="M177.05 128.74H110.43V224.1H177.05V128.74Z" stroke="black" stroke-linecap="round" stroke-linejoin="round"/>
<path d="M248.241 128.74H181.621V224.1H248.241V128.74Z" stroke="black" stroke-linecap="round" stroke-linejoin="round"/>
<path d="M105.85 228.68H39.2305V324.04H105.85V228.68Z" stroke="black" stroke-linecap="round" stroke-linejoin="round"/>
<path d="M177.05 228.68H110.43V324.04H177.05V228.68Z" stroke="black" stroke-linecap="round" stroke-linejoin="round"/>
<path d="M248.241 228.68H181.621V324.04H248.241V228.68Z" stroke="black" stroke-linecap="round" stroke-linejoin="round"/>
</g>
<path d="M446.52 43.18V346.63C446.52 350.63 444.932 354.467 442.104 357.297C439.276 360.126 435.441 361.717 431.44 361.72H300.32C296.32 361.717 292.484 360.126 289.656 357.297C286.829 354.467 285.24 350.63 285.24 346.63V43.17C285.24 39.1732 286.828 35.3401 289.654 32.5139C292.48 29.6877 296.313 28.1 300.31 28.1H356.59L356.64 28.27C358.04 33.32 361.27 36.6 364.85 36.6H366.85C370.44 36.6 373.66 33.32 375.07 28.27L375.12 28.1H431.39C433.375 28.0934 435.341 28.4786 437.176 29.2335C439.012 29.9884 440.68 31.0981 442.086 32.4991C443.491 33.9001 444.607 35.5647 445.368 37.3976C446.129 39.2304 446.52 41.1954 446.52 43.18Z" fill="white"/>
<path d="M446.52 260.77V43.18C446.52 39.1805 444.931 35.3449 442.103 32.5168C439.275 29.6888 435.44 28.1 431.44 28.1H375.17L375.12 28.27C373.71 33.32 370.49 36.6 366.9 36.6H364.9C361.32 36.6 358.09 33.32 356.69 28.27L356.64 28.1H300.31C296.313 28.1 292.48 29.6877 289.654 32.5139C286.828 35.3401 285.24 39.1732 285.24 43.17V260.77H446.52Z" fill="#4FCC9F"/>
<path d="M375.121 28.27C373.711 33.32 370.491 36.6 366.901 36.6H364.901C361.321 36.6 358.091 33.32 356.691 28.27L356.641 28.1H309.161C303.47 28.0999 297.965 30.1284 293.634 33.8213C289.303 37.5143 286.43 42.6299 285.531 48.25H446.221C445.322 42.6316 442.451 37.5173 438.123 33.8246C433.794 30.1318 428.291 28.1023 422.601 28.1H375.171L375.121 28.27Z" fill="#D4D4D4"/>
<path d="M456.771 115.66V85.35H454.001V46.55C454.001 40.206 451.481 34.1219 446.995 29.636C442.509 25.1501 436.425 22.63 430.081 22.63H301.641C298.499 22.63 295.389 23.2487 292.487 24.4508C289.585 25.6529 286.948 27.4148 284.727 29.636C282.506 31.8572 280.744 34.4941 279.542 37.3962C278.339 40.2983 277.721 43.4088 277.721 46.55V354.88C277.721 358.021 278.339 361.132 279.542 364.034C280.744 366.936 282.506 369.573 284.727 371.794C286.948 374.015 289.585 375.777 292.487 376.979C295.389 378.181 298.499 378.8 301.641 378.8H430.111C436.449 378.792 442.526 376.268 447.005 371.783C451.485 367.298 454.001 361.219 454.001 354.88V141.49H456.741V123.58H454.001V115.66H456.771ZM446.521 337.8C446.518 344.143 443.997 350.226 439.512 354.711C435.026 359.196 428.944 361.717 422.601 361.72H309.161C306.019 361.72 302.909 361.101 300.007 359.899C297.105 358.697 294.468 356.935 292.247 354.714C290.026 352.493 288.264 349.856 287.061 346.954C285.859 344.052 285.241 340.941 285.241 337.8V52C285.246 45.6595 287.768 39.5805 292.254 35.0989C296.739 30.6174 302.82 28.1 309.161 28.1H356.591L356.641 28.27C358.041 33.32 361.271 36.6 364.851 36.6H366.851C370.441 36.6 373.661 33.32 375.071 28.27L375.121 28.1H422.601C428.94 28.1027 435.02 30.6209 439.505 35.1019C443.989 39.5828 446.513 45.6603 446.521 52V337.8Z" fill="#707070" stroke="#263238" stroke-linejoin="round"/>
<path d="M428.2 25.93H303.56C300.53 25.9287 297.53 26.5245 294.73 27.6834C291.931 28.8423 289.387 30.5416 287.244 32.6841C285.102 34.8266 283.403 37.3704 282.244 40.1699C281.085 42.9695 280.489 45.97 280.49 49V352.44C280.49 355.469 281.087 358.469 282.247 361.267C283.406 364.065 285.106 366.608 287.248 368.749C289.39 370.891 291.934 372.589 294.732 373.748C297.531 374.906 300.531 375.501 303.56 375.5H428.2C431.229 375.5 434.227 374.904 437.025 373.745C439.823 372.586 442.365 370.887 444.506 368.746C446.647 366.605 448.346 364.062 449.505 361.265C450.664 358.467 451.26 355.468 451.26 352.44V49C451.262 45.9709 450.666 42.9712 449.508 40.1722C448.35 37.3733 446.651 34.83 444.51 32.6876C442.368 30.5453 439.826 28.8458 437.027 27.6863C434.229 26.5268 431.229 25.93 428.2 25.93ZM446.52 338.65C446.52 344.769 444.09 350.636 439.763 354.963C435.437 359.289 429.569 361.72 423.45 361.72H308.31C302.192 361.72 296.324 359.289 291.997 354.963C287.671 350.636 285.24 344.769 285.24 338.65V51.16C285.24 45.0441 287.67 39.1787 291.994 34.8541C296.319 30.5295 302.184 28.1 308.3 28.1H356.59L356.64 28.27C358.04 33.32 361.27 36.6 364.85 36.6H366.85C370.44 36.6 373.66 33.32 375.07 28.27L375.12 28.1H423.4C429.519 28.1 435.387 30.5306 439.713 34.857C444.04 39.1835 446.47 45.0514 446.47 51.17L446.52 338.65Z" fill="#263238" stroke="#263238" stroke-linejoin="round"/>
<path d="M367.631 29.24C367.631 28.795 367.499 28.36 367.252 27.99C367.004 27.6199 366.653 27.3316 366.242 27.1613C365.831 26.991 365.378 26.9464 364.942 27.0332C364.505 27.12 364.105 27.3343 363.79 27.649C363.475 27.9637 363.261 28.3646 363.174 28.801C363.087 29.2375 363.132 29.6899 363.302 30.101C363.472 30.5122 363.761 30.8636 364.131 31.1108C364.501 31.358 364.936 31.49 365.381 31.49C365.677 31.4913 365.97 31.434 366.243 31.3214C366.517 31.2088 366.766 31.0431 366.975 30.8339C367.184 30.6247 367.35 30.3762 367.462 30.1026C367.575 29.829 367.632 29.5358 367.631 29.24Z" fill="white"/>
<path d="M299.572 37.85C299.572 40.12 297.022 40.94 297.012 42.67V42.79H299.492V43.55H296.182V42.91C296.182 40.48 298.732 40 298.732 37.91C298.732 37.14 298.472 36.73 297.852 36.73C297.232 36.73 296.972 37.17 296.972 37.84V38.5H296.182V37.89C296.182 36.74 296.712 35.97 297.872 35.97C299.032 35.97 299.572 36.7 299.572 37.85Z" fill="#263238"/>
<path d="M303.701 37.84V38C303.736 38.3232 303.665 38.6491 303.499 38.9286C303.333 39.2081 303.081 39.4262 302.781 39.55C303.083 39.6742 303.336 39.8939 303.503 40.1755C303.669 40.4571 303.738 40.7852 303.701 41.11V41.69C303.701 42.85 303.161 43.6 302.001 43.6C300.841 43.6 300.311 42.85 300.311 41.69V41.18H301.091V41.75C301.091 42.43 301.371 42.84 301.971 42.84C302.571 42.84 302.861 42.44 302.861 41.67V41.09C302.861 40.35 302.541 39.99 301.911 39.97H301.461V39.22H302.001C302.128 39.2206 302.254 39.1945 302.371 39.1432C302.488 39.092 302.592 39.0168 302.678 38.9225C302.764 38.8282 302.829 38.717 302.869 38.5959C302.909 38.4749 302.923 38.3468 302.911 38.22V37.87C302.911 37.1 302.641 36.7 302.021 36.7C301.401 36.7 301.141 37.12 301.141 37.8V38.18H300.361V37.84C300.361 36.69 300.891 35.94 302.051 35.94C303.211 35.94 303.701 36.69 303.701 37.84Z" fill="#263238"/>
<path d="M305.322 38.41V39.41H304.521V38.41H305.322ZM305.322 42.51V43.51H304.521V42.51H305.322Z" fill="#263238"/>
<path d="M307.001 39.09C307.111 38.892 307.274 38.7283 307.472 38.6171C307.67 38.506 307.894 38.4516 308.121 38.46C309.121 38.46 309.521 39.17 309.521 40.25V41.72C309.521 42.88 308.981 43.63 307.821 43.63C306.661 43.63 306.131 42.88 306.131 41.72V41.22H306.921V41.78C306.921 42.46 307.201 42.87 307.801 42.87C308.401 42.87 308.681 42.46 308.681 41.78V40.31C308.681 39.64 308.401 39.23 307.801 39.23C307.692 39.226 307.584 39.2436 307.482 39.2818C307.381 39.3199 307.288 39.3779 307.209 39.4523C307.13 39.5268 307.066 39.6162 307.022 39.7153C306.978 39.8145 306.953 39.9215 306.951 40.03V40.21H306.171L306.371 36.02H309.371V36.77H307.151L307.001 39.09Z" fill="#263238"/>
<path d="M313.732 37.83V38H313.002V37.8C313.002 37.13 312.722 36.73 312.102 36.73C311.482 36.73 311.192 37.14 311.192 37.94V39.6C311.28 39.3521 311.447 39.1398 311.667 38.9955C311.888 38.8511 312.149 38.7825 312.412 38.8C313.412 38.8 313.812 39.5 313.812 40.58V41.72C313.812 42.88 313.232 43.63 312.082 43.63C310.932 43.63 310.352 42.88 310.352 41.72V37.88C310.352 36.69 310.892 35.94 312.082 35.94C313.272 35.94 313.732 36.68 313.732 37.83ZM311.142 40.65V41.78C311.142 42.46 311.422 42.87 312.032 42.87C312.642 42.87 312.932 42.46 312.932 41.78V40.65C312.932 39.97 312.642 39.56 312.032 39.56C311.422 39.56 311.142 40 311.142 40.65Z" fill="#263238"/>
<path d="M396.011 38.16H393.881V43.48H396.011V38.16Z" fill="#263238"/>
<path d="M398.851 37.09H396.721V43.48H398.851V37.09Z" fill="#263238"/>
<path d="M401.681 36.34H399.551V43.48H401.681V36.34Z" fill="#263238"/>
<path d="M404.521 35.02H402.391V43.48H404.521V35.02Z" fill="#263238"/>
<path d="M430.85 43.33H418.08V35.53H430.85V43.33ZM418.79 42.62H430.14V36.24H418.79V42.62Z" fill="#263238"/>
<path d="M426.601 37.01H419.861V41.85H426.601V37.01Z" fill="#263238"/>
<path d="M432.02 38.51H430.41V40.35H432.02V38.51Z" fill="#263238"/>
<path d="M413.401 41.64C413.316 41.6369 413.234 41.6129 413.161 41.57C410.561 40.02 408.841 41.46 408.771 41.57C408.724 41.6113 408.669 41.6429 408.61 41.6628C408.551 41.6827 408.488 41.6905 408.426 41.6859C408.363 41.6812 408.302 41.6642 408.247 41.6357C408.191 41.6072 408.141 41.5679 408.101 41.52C408.014 41.4304 407.965 41.3101 407.965 41.185C407.965 41.0598 408.014 40.9396 408.101 40.85C408.191 40.77 410.391 38.85 413.611 40.85C413.665 40.8818 413.711 40.924 413.748 40.9741C413.785 41.0241 413.812 41.081 413.827 41.1415C413.842 41.202 413.845 41.2648 413.835 41.3264C413.825 41.3879 413.804 41.4469 413.771 41.5C413.723 41.5478 413.665 41.5849 413.601 41.609C413.537 41.6331 413.469 41.6437 413.401 41.64Z" fill="#263238"/>
<path d="M414.361 40C414.277 40.0004 414.195 39.9798 414.121 39.94C410.361 37.7 407.841 39.86 407.811 39.88C407.764 39.9214 407.71 39.9532 407.651 39.9735C407.592 39.9939 407.53 40.0025 407.468 39.9988C407.406 39.9951 407.345 39.9791 407.289 39.9519C407.233 39.9246 407.182 39.8866 407.141 39.84C407.1 39.7934 407.068 39.7391 407.048 39.6802C407.027 39.6213 407.019 39.5589 407.022 39.4967C407.026 39.4345 407.042 39.3736 407.069 39.3176C407.096 39.2615 407.134 39.2114 407.181 39.17C407.181 39.17 410.261 36.53 414.611 39.12C414.665 39.1519 414.711 39.194 414.748 39.2441C414.785 39.2941 414.812 39.3511 414.827 39.4115C414.842 39.472 414.845 39.5349 414.835 39.5964C414.825 39.6579 414.804 39.7169 414.771 39.77C414.728 39.8403 414.668 39.8984 414.596 39.9386C414.524 39.9789 414.443 40.0001 414.361 40Z" fill="#263238"/>
<path d="M415.241 38.18C415.153 38.177 415.068 38.153 414.991 38.11C410.231 35.28 407.071 37.94 406.941 38.11C406.894 38.1514 406.839 38.1829 406.78 38.2028C406.721 38.2227 406.658 38.2306 406.596 38.2259C406.533 38.2212 406.472 38.2042 406.417 38.1757C406.361 38.1472 406.311 38.1079 406.271 38.06C406.227 38.0163 406.191 37.9641 406.167 37.9066C406.143 37.8491 406.131 37.7874 406.131 37.725C406.131 37.6626 406.143 37.6009 406.167 37.5434C406.191 37.4859 406.227 37.4337 406.271 37.39C406.271 37.39 410.061 34.14 415.441 37.34C415.549 37.4046 415.627 37.5088 415.659 37.6303C415.691 37.7518 415.674 37.881 415.611 37.99C415.567 38.0469 415.511 38.0934 415.447 38.1262C415.383 38.159 415.313 38.1774 415.241 38.18Z" fill="#263238"/>
<path d="M412.002 42.43C412.004 42.6678 411.935 42.9008 411.804 43.0994C411.674 43.2981 411.487 43.4534 411.268 43.5458C411.049 43.6381 410.807 43.6633 410.574 43.6182C410.34 43.573 410.125 43.4595 409.957 43.2921C409.788 43.1247 409.672 42.9109 409.625 42.6778C409.578 42.4448 409.601 42.203 409.692 41.9831C409.782 41.7633 409.936 41.5753 410.134 41.443C410.331 41.3107 410.564 41.24 410.802 41.24C411.118 41.24 411.422 41.3651 411.647 41.5879C411.871 41.8108 411.999 42.1135 412.002 42.43Z" fill="#263238"/>
<path d="M427.892 110.19H305.432C299.909 110.19 295.432 114.667 295.432 120.19V191.36C295.432 196.883 299.909 201.36 305.432 201.36H427.892C433.415 201.36 437.892 196.883 437.892 191.36V120.19C437.892 114.667 433.415 110.19 427.892 110.19Z" fill="white" stroke="#263238" stroke-linecap="round" stroke-linejoin="round"/>
<path d="M298.72 100.54C297.934 100.58 297.152 100.393 296.47 100C295.927 99.6503 295.521 99.1241 295.32 98.51C295.091 97.7963 294.983 97.0494 295 96.3V91.72C294.983 90.947 295.095 90.1766 295.33 89.44C295.532 88.8428 295.935 88.3339 296.47 88C297.156 87.6193 297.936 87.4392 298.72 87.48C299.463 87.4427 300.204 87.5977 300.87 87.93C301.377 88.2213 301.767 88.6813 301.97 89.23C302.197 89.8474 302.306 90.5022 302.29 91.16V92.2H299.77V91C299.786 90.7236 299.786 90.4464 299.77 90.17C299.75 89.9383 299.659 89.7182 299.51 89.54C299.409 89.4526 299.291 89.3863 299.164 89.3451C299.037 89.3039 298.903 89.2885 298.77 89.3C298.634 89.2885 298.498 89.3048 298.369 89.3478C298.24 89.3907 298.121 89.4596 298.02 89.55C297.854 89.7296 297.749 89.9571 297.72 90.2C297.678 90.4948 297.658 90.7923 297.66 91.09V96.89C297.657 97.2018 297.684 97.5132 297.74 97.82C297.781 98.0567 297.896 98.2741 298.07 98.44C298.271 98.5908 298.519 98.6652 298.77 98.65C298.9 98.6635 299.032 98.6491 299.156 98.6077C299.28 98.5663 299.394 98.4989 299.49 98.41C299.641 98.22 299.734 97.9911 299.76 97.75C299.781 97.4637 299.781 97.1763 299.76 96.89V95.65H302.28V96.71C302.295 97.3897 302.19 98.0667 301.97 98.71C301.77 99.2704 301.385 99.7463 300.88 100.06C300.219 100.42 299.471 100.586 298.72 100.54Z" fill="#263238"/>
<path d="M307.441 100.54C306.668 100.578 305.899 100.402 305.221 100.03C304.678 99.6969 304.266 99.189 304.051 98.59C303.803 97.8698 303.684 97.1115 303.701 96.35V91.59C303.684 90.8286 303.803 90.0702 304.051 89.35C304.267 88.7593 304.68 88.2612 305.221 87.94C305.903 87.5805 306.67 87.4112 307.441 87.45C308.221 87.4093 308.998 87.5785 309.691 87.94C310.233 88.2663 310.649 88.7669 310.871 89.36C311.127 90.0749 311.249 90.8309 311.231 91.59V96.35C311.249 97.1124 311.127 97.8717 310.871 98.59C310.655 99.1918 310.238 99.7005 309.691 100.03C309.002 100.404 308.223 100.58 307.441 100.54ZM307.441 98.66C307.575 98.6742 307.71 98.6612 307.839 98.6216C307.968 98.5821 308.088 98.5169 308.191 98.43C308.354 98.2628 308.462 98.0501 308.501 97.82C308.554 97.5466 308.581 97.2686 308.581 96.99V91C308.581 90.7247 308.554 90.4501 308.501 90.18C308.458 89.9513 308.35 89.7396 308.191 89.57C307.977 89.4047 307.709 89.3261 307.441 89.35C307.188 89.332 306.938 89.4106 306.741 89.57C306.575 89.7363 306.463 89.949 306.421 90.18C306.367 90.4501 306.341 90.7247 306.341 91V97C306.342 97.2781 306.366 97.5556 306.411 97.83C306.445 98.0616 306.554 98.2757 306.721 98.44C306.923 98.6043 307.181 98.6833 307.441 98.66Z" fill="#263238"/>
<path d="M316.55 100.54C315.768 100.583 314.99 100.41 314.3 100.04C313.764 99.7146 313.363 99.207 313.17 98.61C312.938 97.8729 312.83 97.1025 312.85 96.33V87.61H315.41V96.69C315.413 97.0012 315.436 97.3119 315.48 97.62C315.516 97.8915 315.627 98.1477 315.8 98.36C315.895 98.4614 316.012 98.5401 316.142 98.5903C316.272 98.6405 316.411 98.6609 316.55 98.65C316.69 98.6576 316.83 98.6357 316.961 98.5858C317.092 98.5358 317.211 98.4589 317.31 98.36C317.484 98.1492 317.592 97.8918 317.62 97.62C317.661 97.3117 317.681 97.001 317.68 96.69V87.61H320.25V96.33C320.266 97.1022 320.158 97.872 319.93 98.61C319.726 99.1905 319.327 99.6819 318.8 100C318.113 100.382 317.335 100.568 316.55 100.54Z" fill="#263238"/>
<path d="M322.061 100.36V87.61H325.371C326.118 87.591 326.863 87.6889 327.581 87.9C328.156 88.0569 328.659 88.4108 329.001 88.9C329.354 89.5054 329.524 90.2 329.491 90.9C329.498 91.3667 329.454 91.8328 329.361 92.29C329.274 92.652 329.114 92.9923 328.891 93.29C328.626 93.6133 328.281 93.8615 327.891 94.01L329.661 100.23H327.001L325.531 94.45H324.621V100.23L322.061 100.36ZM324.661 93.04H325.411C325.756 93.0578 326.101 92.9854 326.411 92.83C326.653 92.6958 326.836 92.474 326.921 92.21C327.025 91.8873 327.076 91.5493 327.071 91.21C327.099 90.7383 326.988 90.2687 326.751 89.86C326.602 89.6902 326.414 89.5595 326.203 89.4793C325.992 89.3991 325.764 89.3719 325.541 89.4H324.661V93.04Z" fill="#263238"/>
<path d="M334.502 100.54C333.808 100.569 333.119 100.418 332.502 100.1C331.975 99.8066 331.557 99.3505 331.312 98.8C331.022 98.0913 330.866 97.3353 330.852 96.57L333.092 96.19C333.1 96.631 333.153 97.07 333.252 97.5C333.31 97.797 333.452 98.0711 333.662 98.29C333.85 98.4614 334.097 98.5544 334.352 98.55C334.482 98.5655 334.615 98.5448 334.735 98.4901C334.855 98.4355 334.957 98.349 335.032 98.24C335.154 98.0166 335.216 97.7649 335.212 97.51C335.226 97.0348 335.094 96.5667 334.832 96.17C334.542 95.7657 334.206 95.3966 333.832 95.07L332.512 93.92C332.051 93.539 331.659 93.0825 331.352 92.57C331.037 92.0018 330.881 91.3592 330.902 90.71C330.873 90.2644 330.941 89.8178 331.1 89.4004C331.258 88.983 331.504 88.6044 331.822 88.29C332.528 87.6993 333.432 87.399 334.352 87.45C334.892 87.427 335.43 87.5332 335.922 87.76C336.327 87.9454 336.673 88.2396 336.922 88.61C337.145 88.9625 337.304 89.3519 337.392 89.76C337.478 90.1654 337.534 90.5765 337.562 90.99L335.332 91.32C335.317 90.985 335.284 90.6512 335.232 90.32C335.208 90.0675 335.111 89.8275 334.952 89.63C334.863 89.5411 334.757 89.4721 334.64 89.4275C334.523 89.3828 334.398 89.3637 334.273 89.3712C334.149 89.3788 334.027 89.413 333.916 89.4714C333.805 89.5298 333.708 89.6111 333.632 89.71C333.49 89.9347 333.414 90.1944 333.412 90.46C333.399 90.853 333.507 91.2405 333.722 91.57C333.97 91.9007 334.252 92.2056 334.562 92.48L335.852 93.61C336.387 94.0661 336.852 94.5984 337.232 95.19C337.637 95.8504 337.839 96.6156 337.812 97.39C337.818 97.9565 337.677 98.515 337.402 99.01C337.133 99.4869 336.738 99.8811 336.262 100.15C335.718 100.43 335.112 100.564 334.502 100.54Z" fill="#263238"/>
<path d="M338.941 100.36V87.61H344.501V89.4H341.501V92.79H343.791V94.6H341.501V98.6H344.501V100.36H338.941Z" fill="#263238"/>
<path d="M297.121 218.93V208.87H298.501V218.93H297.121Z" fill="#263238"/>
<path d="M300.131 218.93V208.87H301.081L303.941 215.55V208.87H305.111V218.93H304.211L301.321 212.06V218.93H300.131Z" fill="#263238"/>
<path d="M307.79 218.93V209.93H306.09V208.93H310.85V209.93H309.2V218.93H307.79Z" fill="#263238"/>
<path d="M311.82 218.93V208.87H313.82C314.389 208.853 314.956 208.944 315.49 209.14C315.918 209.288 316.275 209.592 316.49 209.99C316.721 210.473 316.831 211.005 316.81 211.54C316.816 211.898 316.772 212.254 316.68 212.6C316.613 212.896 316.48 213.173 316.29 213.41C316.098 213.632 315.849 213.797 315.57 213.89L316.99 218.89H315.64L314.32 214.17H313.23V218.89L311.82 218.93ZM313.22 213.2H313.75C314.09 213.219 314.429 213.171 314.75 213.06C314.993 212.968 315.19 212.785 315.3 212.55C315.43 212.233 315.488 211.892 315.47 211.55C315.509 211.103 315.396 210.655 315.15 210.28C314.977 210.127 314.774 210.013 314.553 209.946C314.332 209.878 314.099 209.859 313.87 209.89H313.25L313.22 213.2Z" fill="#263238"/>
<path d="M320.84 219C320.271 219.028 319.705 218.892 319.21 218.61C318.799 218.34 318.492 217.938 318.34 217.47C318.152 216.913 318.064 216.328 318.08 215.74V212C318.069 211.419 318.157 210.841 318.34 210.29C318.501 209.84 318.807 209.457 319.21 209.2C319.708 208.926 320.272 208.795 320.84 208.82C321.403 208.792 321.962 208.928 322.45 209.21C322.852 209.465 323.156 209.849 323.31 210.3C323.502 210.846 323.594 211.422 323.58 212V215.83C323.59 216.411 323.499 216.99 323.31 217.54C323.157 218.005 322.855 218.406 322.45 218.68C321.956 218.943 321.396 219.054 320.84 219ZM320.84 217.9C321.138 217.92 321.434 217.839 321.68 217.67C321.877 217.502 322.014 217.273 322.07 217.02C322.136 216.691 322.166 216.356 322.16 216.02V211.61C322.167 211.274 322.137 210.939 322.07 210.61C322.011 210.366 321.874 210.149 321.68 209.99C321.429 209.834 321.135 209.76 320.84 209.78C320.539 209.761 320.238 209.834 319.98 209.99C319.786 210.149 319.649 210.366 319.59 210.61C319.519 210.939 319.485 211.274 319.49 211.61V216.02C319.487 216.356 319.52 216.691 319.59 217.02C319.646 217.273 319.783 217.502 319.98 217.67C320.229 217.852 320.531 217.947 320.84 217.94V217.9Z" fill="#263238"/>
<path d="M325 218.93V208.87H327.19C327.799 208.842 328.405 208.958 328.96 209.21C329.378 209.424 329.707 209.778 329.89 210.21C330.089 210.754 330.184 211.331 330.17 211.91V215.61C330.183 216.222 330.088 216.831 329.89 217.41C329.724 217.874 329.402 218.266 328.98 218.52C328.466 218.799 327.884 218.931 327.3 218.9L325 218.93ZM326.4 217.93H327.2C327.588 217.968 327.976 217.861 328.29 217.63C328.525 217.399 328.664 217.089 328.68 216.76C328.732 216.302 328.756 215.841 328.75 215.38V212.11C328.759 211.684 328.726 211.259 328.65 210.84C328.632 210.7 328.584 210.564 328.51 210.444C328.436 210.323 328.337 210.22 328.22 210.14C327.895 209.967 327.528 209.888 327.16 209.91H326.4V217.93Z" fill="#263238"/>
<path d="M334.101 219C333.512 219.039 332.927 218.889 332.431 218.57C332.032 218.267 331.749 217.836 331.631 217.35C331.482 216.745 331.411 216.123 331.421 215.5V208.83H332.761V215.56C332.758 215.955 332.788 216.35 332.851 216.74C332.888 217.055 333.02 217.352 333.231 217.59C333.346 217.699 333.483 217.783 333.633 217.836C333.783 217.89 333.942 217.911 334.101 217.9C334.262 217.911 334.424 217.889 334.577 217.836C334.73 217.783 334.871 217.699 334.991 217.59C335.194 217.348 335.322 217.053 335.361 216.74C335.42 216.35 335.447 215.955 335.441 215.56V208.83H336.771V215.5C336.78 216.123 336.709 216.745 336.561 217.35C336.446 217.836 336.167 218.267 335.771 218.57C335.275 218.89 334.689 219.041 334.101 219Z" fill="#263238"/>
<path d="M340.77 219C340.187 219.034 339.608 218.88 339.12 218.56C338.719 218.259 338.431 217.833 338.3 217.35C338.137 216.802 338.059 216.232 338.07 215.66V212.11C338.057 211.508 338.134 210.908 338.3 210.33C338.429 209.857 338.719 209.443 339.12 209.16C339.601 208.897 340.138 208.753 340.686 208.741C341.234 208.728 341.778 208.848 342.27 209.09C342.643 209.322 342.925 209.675 343.07 210.09C343.241 210.592 343.322 211.12 343.31 211.65V212.44H342V211.73C342.003 211.396 341.983 211.061 341.94 210.73C341.922 210.478 341.816 210.241 341.64 210.06C341.402 209.881 341.106 209.799 340.81 209.83C340.499 209.801 340.188 209.89 339.94 210.08C339.747 210.276 339.621 210.528 339.58 210.8C339.524 211.161 339.497 211.525 339.5 211.89V215.89C339.486 216.291 339.53 216.692 339.63 217.08C339.679 217.335 339.826 217.561 340.04 217.71C340.271 217.85 340.54 217.916 340.81 217.9C340.957 217.913 341.105 217.896 341.246 217.852C341.386 217.807 341.517 217.735 341.63 217.64C341.805 217.446 341.914 217.2 341.94 216.94C341.981 216.608 342.001 216.274 342 215.94V215.19H343.33V215.94C343.335 216.488 343.261 217.033 343.11 217.56C342.983 218.002 342.707 218.387 342.33 218.65C341.86 218.928 341.314 219.051 340.77 219Z" fill="#263238"/>
<path d="M345.761 218.93V209.93H344.051V208.93H348.811V209.93H347.161V218.93H345.761Z" fill="#263238"/>
<path d="M349.852 218.93V208.87H351.232V218.93H349.852Z" fill="#263238"/>
<path d="M355.432 219C354.865 219.029 354.303 218.894 353.812 218.61C353.401 218.34 353.094 217.938 352.942 217.47C352.754 216.913 352.666 216.327 352.682 215.74V212C352.666 211.419 352.754 210.84 352.942 210.29C353.102 209.84 353.408 209.457 353.812 209.2C354.305 208.923 354.866 208.791 355.432 208.82C355.998 208.791 356.56 208.926 357.051 209.21C357.451 209.468 357.754 209.851 357.912 210.3C358.104 210.846 358.195 211.422 358.182 212V215.83C358.192 216.411 358.1 216.99 357.912 217.54C357.756 218.003 357.454 218.403 357.051 218.68C356.555 218.944 355.991 219.055 355.432 219ZM355.432 217.9C355.733 217.92 356.032 217.84 356.282 217.67C356.479 217.504 356.614 217.274 356.662 217.02C356.737 216.692 356.77 216.356 356.762 216.02V211.61C356.771 211.274 356.738 210.938 356.662 210.61C356.61 210.366 356.476 210.147 356.282 209.99C356.027 209.832 355.73 209.759 355.432 209.78C355.133 209.761 354.837 209.835 354.581 209.99C354.387 210.149 354.25 210.366 354.192 210.61C354.115 210.938 354.082 211.274 354.092 211.61V216.02C354.083 216.356 354.116 216.692 354.192 217.02C354.247 217.273 354.384 217.502 354.581 217.67C354.827 217.851 355.126 217.946 355.432 217.94V217.9Z" fill="#263238"/>
<path d="M359.561 218.93V208.87H360.511L363.371 215.55V208.87H364.541V218.93H363.641L360.751 212.06V218.93H359.561Z" fill="#263238"/>
<path d="M408.07 232.12H433.99" stroke="#263238" stroke-miterlimit="10"/>
<path d="M349.76 232.12H403.09" stroke="#263238" stroke-miterlimit="10"/>
<path d="M297.92 232.12H344.77" stroke="#263238" stroke-miterlimit="10"/>
<path d="M332.311 239.6H433.991" stroke="#263238" stroke-miterlimit="10"/>
<path d="M297.92 239.6H327.82" stroke="#263238" stroke-miterlimit="10"/>
<path d="M419.541 247.08H433.991" stroke="#263238" stroke-miterlimit="10"/>
<path d="M352.25 247.08H414.55" stroke="#263238" stroke-miterlimit="10"/>
<path d="M297.92 247.08H346.77" stroke="#263238" stroke-miterlimit="10"/>
<path d="M426.521 254.55H433.991" stroke="#263238" stroke-miterlimit="10"/>
<path d="M406.58 254.55H421.53" stroke="#263238" stroke-miterlimit="10"/>
<path d="M332.811 254.55H402.591" stroke="#263238" stroke-miterlimit="10"/>
<path d="M297.92 254.55H328.32" stroke="#263238" stroke-miterlimit="10"/>
<path d="M398.662 276.89H340.602V282.7H398.662V276.89Z" fill="#263238" stroke="#263238" stroke-linecap="round" stroke-linejoin="round"/>
<path d="M416.602 287.18H340.602V292.99H416.602V287.18Z" fill="#263238" stroke="#263238" stroke-linecap="round" stroke-linejoin="round"/>
<path d="M398.662 321.62H340.602V327.43H398.662V321.62Z" fill="#263238" stroke="#263238" stroke-linecap="round" stroke-linejoin="round"/>
<path d="M416.602 331.91H340.602V337.72H416.602V331.91Z" fill="#263238" stroke="#263238" stroke-linecap="round" stroke-linejoin="round"/>
<path d="M325.961 267.18H302.061C299.437 267.18 297.311 269.307 297.311 271.93V296.13C297.311 298.753 299.437 300.88 302.061 300.88H325.961C328.584 300.88 330.711 298.753 330.711 296.13V271.93C330.711 269.307 328.584 267.18 325.961 267.18Z" fill="#D4D4D4"/>
<path d="M314.011 292.4C318.633 292.4 322.381 288.653 322.381 284.03C322.381 279.407 318.633 275.66 314.011 275.66C309.388 275.66 305.641 279.407 305.641 284.03C305.641 288.653 309.388 292.4 314.011 292.4Z" fill="#263238"/>
<path d="M318.86 284.21L311.58 280.01V288.42L318.86 284.21Z" fill="white"/>
<path d="M367 176C378.046 176 387 167.046 387 156C387 144.954 378.046 136 367 136C355.954 136 347 144.954 347 156C347 167.046 355.954 176 367 176Z" fill="#263238"/>
<path d="M378.587 156.43L361.191 146.394V166.49L378.587 156.43Z" fill="white"/>
<path d="M325.961 310.69H302.061C299.437 310.69 297.311 312.817 297.311 315.44V339.64C297.311 342.263 299.437 344.39 302.061 344.39H325.961C328.584 344.39 330.711 342.263 330.711 339.64V315.44C330.711 312.817 328.584 310.69 325.961 310.69Z" fill="#D4D4D4"/>
<path d="M321.606 331.049C323.546 326.854 321.718 321.879 317.522 319.939C313.327 317.999 308.352 319.827 306.412 324.022C304.471 328.218 306.3 333.192 310.495 335.133C314.691 337.073 319.665 335.245 321.606 331.049Z" fill="#263238"/>
<path d="M318.86 327.73L311.58 323.52V331.93L318.86 327.73Z" fill="white"/>
<path d="M299.102 305.66H434.502" stroke="#263238" stroke-miterlimit="10"/>
<path d="M429.301 60.18H439.871" stroke="#263238" stroke-linecap="round" stroke-linejoin="round"/>
<path d="M429.301 65.19H439.871" stroke="#263238" stroke-linecap="round" stroke-linejoin="round"/>
<path d="M429.301 70.19H439.871" stroke="#263238" stroke-linecap="round" stroke-linejoin="round"/>
<path d="M425.06 56.85H296.26V73.53H425.06V56.85Z" fill="white" stroke="#263238" stroke-linecap="round" stroke-linejoin="round"/>
<path d="M311.56 62.44C311.562 61.6579 311.332 60.8928 310.899 60.2417C310.465 59.5906 309.849 59.0828 309.126 58.7826C308.404 58.4824 307.609 58.4033 306.842 58.5554C306.075 58.7075 305.37 59.0839 304.817 59.6369C304.264 60.19 303.888 60.8947 303.736 61.6619C303.583 62.429 303.663 63.224 303.963 63.9462C304.263 64.6684 304.771 65.2852 305.422 65.7185C306.073 66.1517 306.838 66.382 307.62 66.38C308.665 66.38 309.667 65.9649 310.406 65.226C311.145 64.4871 311.56 63.485 311.56 62.44Z" fill="white" stroke="#263238" stroke-linecap="round" stroke-linejoin="round"/>
<path d="M302.861 67.97L299.951 71.64" stroke="#263238" stroke-width="2" stroke-linecap="round" stroke-linejoin="round"/>
<path d="M304.991 65.29L302.861 67.97" stroke="#263238" stroke-linecap="round" stroke-linejoin="round"/>
<path d="M315.721 56.96V73.61" stroke="#263238" stroke-linecap="round" stroke-linejoin="round"/>
<path d="M73.3398 279.09C73.349 279.067 73.349 279.042 73.3396 279.02C73.3302 278.997 73.3123 278.979 73.2898 278.97C73.2672 278.961 73.2419 278.961 73.2194 278.97C73.1969 278.98 73.179 278.997 73.1698 279.02C70.3696 285.718 68.1579 292.648 66.5598 299.73C64.9389 306.812 63.7203 313.98 62.9098 321.2L62.3998 326.63C62.3198 327.54 62.2198 328.44 62.1498 329.35L61.9998 332.06C61.9298 333.88 61.8098 335.69 61.7598 337.51L61.8098 342.97L61.8698 345.69C61.8698 346.6 61.9798 347.51 62.0398 348.41C62.1798 350.23 62.2898 352.04 62.4498 353.85C62.7998 357.47 63.3498 361.06 63.8998 364.64C63.9044 364.663 63.917 364.683 63.9353 364.698C63.9536 364.713 63.9764 364.72 63.9998 364.72C63.9998 364.72 64.0998 364.72 64.0898 364.63C64.0898 362.82 64.0098 361.01 63.9698 359.2C63.9298 357.39 63.7598 355.59 63.7798 353.78C63.7998 351.97 63.7798 350.17 63.7198 348.37V345.66V342.96V337.56L63.8598 332.15L63.9198 329.45C63.9198 328.55 64.0198 327.65 64.0698 326.75L64.3998 321.35C65.015 314.158 66.0367 307.007 67.4598 299.93C68.8162 292.827 70.7835 285.854 73.3398 279.09Z" fill="#263238"/>
<path d="M74.1084 307.35C74.1163 307.326 74.1145 307.3 74.1032 307.278C74.092 307.255 74.0722 307.238 74.0484 307.23C74.0245 307.222 73.9984 307.224 73.9759 307.235C73.9534 307.246 73.9363 307.266 73.9284 307.29C72.3984 311.786 71.1165 316.363 70.0884 321C69.0644 325.657 68.3032 330.368 67.8084 335.11C67.3284 339.84 66.8084 344.58 66.7384 349.33C66.6184 354.093 66.7887 358.858 67.2484 363.6C67.2505 363.62 67.2597 363.64 67.2742 363.654C67.2888 363.669 67.3079 363.678 67.3284 363.68C67.3534 363.683 67.3787 363.676 67.3991 363.662C67.4195 363.647 67.4335 363.625 67.4384 363.6C67.9884 358.86 68.3184 354.14 68.6484 349.42C68.9784 344.7 69.0284 339.96 69.3384 335.24C69.6275 330.532 70.1817 325.845 70.9984 321.2C71.7844 316.531 72.8226 311.907 74.1084 307.35Z" fill="#263238"/>
<path d="M89.78 317.29C89.7619 317.275 89.7388 317.266 89.715 317.266C89.6912 317.266 89.6681 317.275 89.65 317.29C85.7296 319.809 82.1988 322.888 79.17 326.43C77.6509 328.21 76.2828 330.113 75.08 332.12L74.24 333.71L73.58 335.36C73.3551 335.895 73.1615 336.443 73 337C72.83 337.57 72.64 338.13 72.49 338.69C71.2917 343.213 70.5645 347.847 70.32 352.52C70.0883 357.166 70.2623 361.824 70.84 366.44C70.8456 366.461 70.8571 366.479 70.8731 366.493C70.8891 366.508 70.9089 366.517 70.93 366.52C70.9549 366.52 70.9789 366.511 70.9974 366.494C71.0159 366.478 71.0275 366.455 71.03 366.43L72.23 352.65C72.5666 348.091 73.1575 343.554 74 339.06C74.13 338.51 74.29 337.97 74.43 337.42C74.5596 336.868 74.7198 336.324 74.91 335.79L75.47 334.2L76.19 332.7C77.279 330.699 78.5334 328.792 79.94 327C82.7418 323.35 86.056 320.123 89.78 317.42C89.7888 317.412 89.7958 317.402 89.8005 317.39C89.8053 317.379 89.8078 317.367 89.8078 317.355C89.8078 317.343 89.8053 317.331 89.8005 317.32C89.7958 317.309 89.7888 317.298 89.78 317.29Z" fill="#263238"/>
<path d="M82.1992 335C80.1624 336.486 78.5267 338.455 77.4392 340.73C76.2887 342.955 75.393 345.304 74.7692 347.73C74.5792 348.33 74.4292 348.94 74.2992 349.55L73.8692 351.38C73.6425 352.61 73.4856 353.852 73.3992 355.1C73.3992 356.35 73.3492 357.6 73.3992 358.85C73.4886 360.099 73.6523 361.341 73.8892 362.57C73.8892 362.57 73.8892 362.64 73.9592 362.64C73.9843 362.646 74.0109 362.642 74.0333 362.629C74.0557 362.616 74.0721 362.595 74.0792 362.57C74.3659 361.36 74.5863 360.134 74.7392 358.9C74.9292 357.69 75.1192 356.49 75.2692 355.28C75.4192 354.07 75.5992 352.88 75.6992 351.67C75.7992 350.46 75.9492 349.25 76.2092 348.07C76.6147 345.686 77.2855 343.355 78.2092 341.12C79.0485 338.831 80.4195 336.775 82.2092 335.12C82.2179 335.112 82.2249 335.102 82.2297 335.09C82.2345 335.079 82.2369 335.067 82.2369 335.055C82.2369 335.043 82.2345 335.031 82.2297 335.02C82.2249 335.008 82.2179 334.998 82.2092 334.99C82.2056 334.993 82.2023 334.996 82.1992 335Z" fill="#263238"/>
<path d="M60.2192 348.8C59.7092 342.68 58.6992 336.62 57.7492 330.57C56.7992 324.52 55.7492 318.48 54.6292 312.46C53.5092 306.44 52.2792 300.46 50.9892 294.46C50.9811 294.437 50.9663 294.417 50.9467 294.403C50.927 294.389 50.9035 294.381 50.8792 294.38C50.866 294.382 50.8533 294.387 50.8421 294.395C50.8308 294.402 50.8211 294.412 50.8137 294.423C50.8062 294.434 50.8011 294.447 50.7986 294.46C50.7961 294.473 50.7963 294.487 50.7992 294.5C51.8492 300.5 52.7992 306.57 53.6892 312.63C54.5792 318.69 55.4692 324.73 56.2292 330.8C56.9892 336.87 57.5592 342.95 58.3292 349.01L60.5592 367.22C60.5648 367.241 60.5763 367.259 60.5923 367.273C60.6083 367.288 60.6281 367.297 60.6492 367.3C60.6619 367.301 60.6746 367.3 60.6867 367.296C60.6988 367.292 60.71 367.286 60.7194 367.277C60.7289 367.269 60.7364 367.259 60.7416 367.247C60.7467 367.235 60.7493 367.223 60.7492 367.21C60.8192 365.68 60.8292 364.14 60.8592 362.6C60.8892 361.06 60.7992 359.54 60.7692 358C60.7192 354.91 60.4592 351.86 60.2192 348.8Z" fill="#263238"/>
<path d="M56.559 348.71C56.229 346.29 55.779 343.88 55.319 341.48L54.459 337.9C54.179 336.71 53.919 335.52 53.569 334.35C52.3498 329.602 50.7856 324.95 48.889 320.43L48.159 318.75L47.339 317.1C46.819 316 46.199 314.94 45.599 313.87C44.3999 311.724 42.9165 309.749 41.189 308C41.1806 307.991 41.1705 307.984 41.1593 307.979C41.1482 307.975 41.1361 307.972 41.124 307.972C41.1119 307.972 41.0998 307.975 41.0887 307.979C41.0775 307.984 41.0674 307.991 41.059 308C41.0502 308.008 41.0432 308.018 41.0385 308.03C41.0337 308.041 41.0312 308.053 41.0312 308.065C41.0312 308.077 41.0337 308.089 41.0385 308.1C41.0432 308.111 41.0502 308.122 41.059 308.13C42.6553 309.942 44.0007 311.96 45.059 314.13C45.589 315.22 46.159 316.29 46.609 317.41L47.329 319.07L47.969 320.77C49.6595 325.306 51.0197 329.958 52.039 334.69C52.599 337.04 52.969 339.44 53.429 341.81L53.999 345.4C54.209 346.59 54.459 347.77 54.629 348.97C55.009 351.37 55.449 353.75 55.869 356.14C56.289 358.53 56.679 360.94 57.179 363.34C57.1852 363.362 57.1982 363.382 57.2162 363.396C57.2341 363.41 57.2561 363.419 57.279 363.42C57.3038 363.417 57.3267 363.406 57.3433 363.387C57.36 363.369 57.3691 363.345 57.369 363.32C57.369 360.88 57.369 358.43 57.199 355.99C57.029 353.55 56.809 351.14 56.559 348.71Z" fill="#263238"/>
<path d="M51.4895 349C50.3595 345.79 49.0495 342.65 47.6195 339.57C46.1767 336.498 44.5504 333.516 42.7495 330.64C42.7314 330.624 42.7084 330.616 42.6845 330.616C42.6607 330.616 42.6377 330.624 42.6195 330.64C42.6108 330.648 42.6038 330.658 42.599 330.67C42.5943 330.681 42.5918 330.693 42.5918 330.705C42.5918 330.717 42.5943 330.729 42.599 330.74C42.6038 330.751 42.6108 330.762 42.6195 330.77C44.1777 333.761 45.5536 336.843 46.7395 340C47.9895 343.13 49.1095 346.3 50.0395 349.53C50.9695 352.76 51.6795 356.03 52.5395 359.27C53.3995 362.51 54.1695 365.77 55.1695 369.04C55.1751 369.061 55.1866 369.079 55.2026 369.093C55.2186 369.108 55.2384 369.117 55.2595 369.12C55.2853 369.118 55.3095 369.106 55.3277 369.088C55.346 369.07 55.3573 369.046 55.3595 369.02C55.3823 365.601 55.0471 362.189 54.3595 358.84C53.6707 355.488 52.7109 352.197 51.4895 349Z" fill="#263238"/>
<path d="M51.2789 359.71C50.6595 357.71 49.7534 355.81 48.5889 354.07C47.5072 352.275 46.1887 350.633 44.6688 349.19C43.8921 348.496 43.0592 347.867 42.1789 347.31C41.3086 346.73 40.354 346.288 39.3489 346C39.3331 345.988 39.3138 345.981 39.2938 345.981C39.2739 345.981 39.2546 345.988 39.2389 346C39.2234 346.018 39.2148 346.041 39.2148 346.065C39.2148 346.089 39.2234 346.112 39.2389 346.13C41.0738 347.019 42.6969 348.291 43.9989 349.86C45.3073 351.355 46.4073 353.02 47.2689 354.81C48.1989 356.57 48.6789 358.51 49.4789 360.32C49.8389 361.25 50.1889 362.18 50.6089 363.11C50.9535 364.08 51.3644 365.026 51.8389 365.94C51.8463 365.955 51.8577 365.967 51.8718 365.976C51.8859 365.985 51.9022 365.99 51.9188 365.99C51.9315 365.991 51.9443 365.99 51.9564 365.986C51.9685 365.982 51.9796 365.976 51.9891 365.967C51.9985 365.959 52.006 365.949 52.0112 365.937C52.0163 365.925 52.0189 365.913 52.0189 365.9C52.0573 364.855 52.0205 363.809 51.9089 362.77C51.7489 361.75 51.5289 360.73 51.2789 359.71Z" fill="#263238"/>
<path d="M51.6582 303.21C48.6043 302.354 45.8419 300.681 43.6691 298.371C41.4962 296.06 39.9953 293.201 39.3282 290.1C36.9982 279.3 44.4682 283.93 37.7782 267C31.0882 250.07 32.6382 246.15 34.9982 241.26C37.3582 236.37 38.5882 237.92 40.6482 244.35C42.7082 250.78 50.1182 260.8 52.9982 279.56C55.8782 298.32 51.6582 303.21 51.6582 303.21Z" fill="#4FCC9F"/>
<path d="M71.4495 285C71.4495 285 64.7695 282.68 64.5095 270.09C64.2495 257.5 69.3995 260.09 70.1695 244.39C70.9395 228.69 71.9695 217.66 74.7895 217.39C77.6095 217.12 85.0795 225.1 87.6495 242.58C90.2195 260.06 84.2995 271.58 79.1595 276.76C74.0195 281.94 71.4495 285 71.4495 285Z" fill="#4FCC9F"/>
<path d="M48.0583 318.37C48.0583 318.37 46.5183 309.12 43.4383 304.75C40.3583 300.38 33.6683 296.52 29.2983 288C24.9283 279.48 20.0483 275.41 20.2983 287.49C20.5483 299.57 25.9983 305.78 32.6383 309.89C39.2783 314 48.0583 318.37 48.0583 318.37Z" fill="#4FCC9F"/>
<path d="M45.2392 334.31C45.2392 334.31 39.0692 322.48 30.0692 313.74C21.0692 305 13.8792 300.64 16.4492 305C19.0192 309.36 22.1092 309.11 26.4492 316.82C30.7892 324.53 29.5392 330.18 35.7092 334.55C41.8792 338.92 45.2392 334.31 45.2392 334.31Z" fill="#4FCC9F"/>
<path d="M44.4693 349.47C44.2093 348.7 43.9493 343.04 35.2093 338.42C26.4693 333.8 18.2093 335.59 19.2793 337.9C20.3493 340.21 25.6993 344.07 31.0993 346.39C36.4993 348.71 44.4693 349.47 44.4693 349.47Z" fill="#4FCC9F"/>
<path d="M70.9384 318.88C70.9384 318.88 67.0784 314 69.1384 303.72C71.1984 293.44 75.8184 296 80.9984 290.61C86.1784 285.22 85.1184 284.44 90.2584 278.79C95.3984 273.14 100.018 270.05 102.078 272.36C104.138 274.67 101.078 281.87 97.9684 285.99C94.8584 290.11 89.9684 292.15 87.6884 297.29C85.4084 302.43 86.3984 310.66 80.4884 314.51C74.5784 318.36 70.9384 318.88 70.9384 318.88Z" fill="#4FCC9F"/>
<path d="M83.7891 321.71C83.7891 321.71 92.9991 311.17 99.7291 303.46C106.459 295.75 108.979 289.84 109.239 294.98C109.499 300.12 111.549 304.23 106.149 310.92C100.749 317.61 83.7891 321.71 83.7891 321.71Z" fill="#4FCC9F"/>
<path d="M78.9085 338.67C78.9085 338.67 78.6485 334.56 93.2985 325.05C107.949 315.54 114.119 313.74 112.579 317.6C111.039 321.46 104.579 325.31 97.6685 332.25C90.7585 339.19 78.9085 338.67 78.9085 338.67Z" fill="#4FCC9F"/>
<path d="M52.2694 302.11C52.2694 302.11 48.8394 283.67 45.2694 270.56C41.6994 257.45 39.3594 249.49 39.3594 249.49" stroke="#263238" stroke-linecap="round" stroke-linejoin="round"/>
<path d="M70.8594 285.15C70.8594 285.15 77.1094 265.15 79.1594 253.09C81.2094 241.03 78.9094 232.01 77.8794 226.61" stroke="#263238" stroke-linecap="round" stroke-linejoin="round"/>
<path d="M47.2495 318C44.4843 313.241 41.316 308.728 37.7795 304.51C32.1295 297.83 27.7795 294.23 25.1895 287.8" stroke="#263238" stroke-linecap="round" stroke-linejoin="round"/>
<path d="M70.9395 318.88C70.9395 318.88 72.9994 306.55 77.8794 300.12C82.7594 293.69 92.5294 283.67 96.3794 277.25" stroke="#263238" stroke-linecap="round" stroke-linejoin="round"/>
<path d="M43.8588 349.19C43.8588 349.19 35.2088 343.56 29.0488 340.47" stroke="#263238" stroke-linecap="round" stroke-linejoin="round"/>
<path d="M93.379 401C92.809 385.41 75.479 375 75.479 375H48.919C48.919 375 31.589 385.4 30.999 401C30.409 416.6 50.639 473.79 50.639 473.79H73.739C73.739 473.79 93.999 416.59 93.379 401Z" fill="#263238" stroke="#263238" stroke-linecap="round" stroke-linejoin="round"/>
<path d="M78.8998 359.67H45.0098L48.9198 375H74.9898L78.8998 359.67Z" fill="#263238" stroke="#263238" stroke-linecap="round" stroke-linejoin="round"/>
<path d="M213.249 274.56C213.249 274.56 204.479 283.86 204.479 286.78C204.479 289.7 205.539 296.62 205.009 299.27C204.479 301.92 182.689 318.67 182.689 318.67L189.329 335.41C189.329 335.41 207.129 307.25 212.449 299.81C217.769 292.37 223.609 284.66 224.139 280.67C224.669 276.68 215.639 273 213.249 274.56Z" fill="#D4D4D4" stroke="#263238" stroke-miterlimit="10"/>
<path d="M214.709 343.55L240.539 333.37C240.539 333.37 257.359 314.37 270.239 300.45C283.119 286.53 299.239 289.71 299.239 299.73C299.239 309.75 294.589 324.73 290.299 331.23C286.009 337.73 277.409 354.49 277.409 354.49C277.409 354.49 307.479 361.65 315.709 366.3C323.939 370.95 356.999 394.41 373.999 406.66C385.179 414.66 391.669 417.92 393.459 417.92C393.939 417.92 394.799 417.84 395.819 417.72C399.909 417.24 404.819 412.93 408.339 410.72C413.169 407.72 420.559 403.57 424.859 403.12C431.659 402.4 429.159 412.42 424.149 419.58C419.139 426.74 410.149 428.89 406.969 431.39C403.789 433.89 396.969 435.33 394.439 435.69C391.909 436.05 369.389 426.74 359.719 422.8C350.049 418.86 331.819 417.96 320.799 404.8C317.148 400.354 313.038 396.305 308.539 392.72C308.539 392.72 248.769 395.22 238.029 396.3C227.289 397.38 202.599 398.09 192.219 398.09C181.839 398.09 176.549 393.98 176.549 393.98C176.549 393.98 172.549 388.42 178.619 379.48C184.689 370.54 214.709 343.55 214.709 343.55Z" fill="#6E6E6E" stroke="#263238" stroke-miterlimit="10"/>
<path d="M424.149 419.63C429.149 412.47 431.659 402.45 424.859 403.17C420.559 403.62 413.169 407.78 408.339 410.77C404.829 412.93 399.909 417.24 395.819 417.77C394.819 417.89 393.939 417.97 393.459 417.97C391.949 417.97 387.049 415.65 378.799 410.06C377.639 414.88 374.279 420.97 365.279 425.17C376.149 429.6 392.339 436.09 394.439 435.79C396.949 435.43 403.749 434 406.969 431.49C410.189 428.98 419.139 426.79 424.149 419.63Z" fill="#D4D4D4" stroke="#263238" stroke-miterlimit="10"/>
<path d="M424.15 419.63C429.15 412.47 431.66 402.45 424.86 403.17C420.56 403.62 413.17 407.78 408.34 410.77C404.83 412.93 399.91 417.24 395.82 417.77C394.82 417.89 393.94 417.97 393.46 417.97C392.959 417.929 392.467 417.814 392 417.63C393.22 420.53 394.3 426.74 386 433.3C390.32 434.87 393.6 435.91 394.47 435.79C396.98 435.43 403.78 434 407 431.49C410.22 428.98 419.14 426.79 424.15 419.63Z" fill="white" stroke="#263238" stroke-miterlimit="10"/>
<path d="M238.349 346.14C237.58 345.598 236.782 345.097 235.959 344.64" stroke="#263238" stroke-miterlimit="10"/>
<path d="M277.401 354.49L245.001 352.59C243.663 350.789 242.115 349.154 240.391 347.72" stroke="#263238" stroke-miterlimit="10"/>
<path d="M219.6 360.3C221.011 359.031 222.632 358.016 224.39 357.3" stroke="#263238" stroke-miterlimit="10"/>
<path d="M210.289 370.67C212.251 367.969 214.396 365.406 216.709 363" stroke="#263238" stroke-miterlimit="10"/>
<path d="M213.91 360.91C213.91 360.91 206.68 367.41 204.91 375.73" stroke="#263238" stroke-miterlimit="10"/>
<path d="M214.71 343.55C214.66 344.526 214.468 345.489 214.14 346.41C213.56 348.14 209.84 362.49 199.79 374.82C193.271 382.584 185.397 389.1 176.55 394.05C164.439 384.648 153.376 373.97 143.55 362.2C126.61 342.11 116.55 322.89 117.14 300.5C117.73 278.11 124.9 264.06 124.9 264.06L124.32 246.84C125.47 243.97 131.5 239.96 139.53 245.12C147.56 250.28 153.88 262.34 153.88 262.34L152.73 269.22C152.73 269.22 156.17 271.52 158.18 272.67C160.19 273.82 167.65 280.41 174.25 288.73C180.85 297.05 187.74 322.03 188.89 328.34C190.04 334.65 199.51 335.79 199.51 335.79L209.26 340.97L214.71 343.55Z" fill="#4FCC9F" stroke="#263238" stroke-miterlimit="10"/>
<path d="M153.88 262.34L152.73 269.22C152.73 269.22 134.94 263.48 124.9 264.06L124.32 246.84C125.47 243.97 131.5 239.96 139.53 245.12C147.56 250.28 153.88 262.34 153.88 262.34Z" fill="#D4D4D4" stroke="#263238" stroke-miterlimit="10"/>
<path d="M163.929 215.94C163.929 215.94 168.809 228.65 167.549 231.94C166.821 233.852 166.207 235.805 165.709 237.79C165.709 237.79 173.149 245.88 171.709 248.03C170.269 250.18 166.429 251.17 166.429 251.17C166.429 251.17 165.429 264.63 164.599 266.84C163.769 269.05 161.189 271.36 155.869 269.84C150.549 268.32 142.759 263.4 139.869 261.04C136.979 258.68 135.199 241.71 135.199 241.71L141.199 239.81C141.199 239.81 139.749 232.42 140.479 231.06C141.209 229.7 149.479 230.67 148.059 225.59C146.639 220.51 143.689 218.43 145.349 216.59C147.009 214.75 163.929 215.94 163.929 215.94Z" fill="#D4D4D4" stroke="#263238" stroke-miterlimit="10"/>
<path d="M165.329 256C165.329 256 156.859 256.74 155.699 249.38" stroke="#263238" stroke-miterlimit="10"/>
<path d="M158.079 248.77L152.619 251.02" stroke="#263238" stroke-miterlimit="10"/>
<path d="M161.629 238.13C161.369 239.62 160.629 240.73 160.019 240.62C159.409 240.51 159.109 239.22 159.369 237.73C159.629 236.24 160.369 235.14 160.979 235.25C161.589 235.36 161.889 236.65 161.629 238.13Z" fill="#263238"/>
<path d="M157.209 233.94C157.209 233.94 161.099 230.35 164.499 233.34" stroke="#263238" stroke-miterlimit="10"/>
<path d="M170.4 215C170.03 218.13 163.93 216 163.93 216L151.36 219.74C151.36 219.74 151.62 224.96 151.5 228.42C151.38 231.88 144.19 234.21 144.19 234.21L143.19 249.99L124.19 249.21L121.46 242.83C121.46 242.83 109.46 231.61 110.77 220.49C111.57 213.68 116.69 207.04 124.93 203.49C127.8 202.271 130.831 201.473 133.93 201.12C137.255 200.741 140.613 200.775 143.93 201.22C163.05 203.71 170.77 211.83 170.4 215Z" fill="#263238" stroke="#263238" stroke-miterlimit="10"/>
<path d="M133.85 235.17L126.68 239.17C126.38 238.62 120 226.87 124.98 203.47C127.85 202.251 130.882 201.453 133.98 201.1C131.08 212.31 130.98 220.56 131.55 225.71C132.19 232 133.84 235.14 133.85 235.17Z" fill="white" stroke="#263238" stroke-miterlimit="10"/>
<path d="M136.203 253.787C142.254 251.412 145.234 244.581 142.859 238.53C140.484 232.479 133.654 229.499 127.603 231.874C121.552 234.249 118.572 241.08 120.947 247.131C123.322 253.182 130.152 256.162 136.203 253.787Z" fill="white" stroke="#263238" stroke-miterlimit="10"/>
<path d="M136.37 299.07C140.121 310.259 144.825 321.105 150.43 331.49C159.62 348.42 173.43 366.79 178.56 365.64C183.69 364.49 212.7 314.56 214.71 310.26C216.72 305.96 219.88 299.64 219.88 299.64C219.88 299.64 226.48 294.76 227.05 292.75C227.62 290.74 226.29 281.21 226.29 281.21C226.29 281.21 229.79 276.61 228.65 274.6C227.51 272.59 225.58 273.22 223.58 274.37C221.58 275.52 217.21 278.73 217.21 278.73C217.768 276.489 217.809 274.15 217.33 271.89C216.47 268.74 213.85 269.8 213.56 271.81C213.27 273.82 213.28 275.81 212.42 277.81C211.191 280.218 210.306 282.786 209.79 285.44C209.22 288.88 207.67 298.19 207.67 298.19C207.67 298.19 191.78 315.93 187.47 320.25C185.34 322.37 180.83 325.83 180.83 325.83L169.09 302.49C169.09 302.49 163.09 281.26 156.75 275.49C153.681 272.707 149.843 270.917 145.739 270.353C141.635 269.789 137.456 270.478 133.75 272.33" fill="#4FCC9F"/>
<path d="M136.37 299.07C140.121 310.259 144.825 321.105 150.43 331.49C159.62 348.42 173.43 366.79 178.56 365.64C183.69 364.49 212.7 314.56 214.71 310.26C216.72 305.96 219.88 299.64 219.88 299.64C219.88 299.64 226.48 294.76 227.05 292.75C227.62 290.74 226.29 281.21 226.29 281.21C226.29 281.21 229.79 276.61 228.65 274.6C227.51 272.59 225.58 273.22 223.58 274.37C221.58 275.52 217.21 278.73 217.21 278.73C217.768 276.489 217.809 274.15 217.33 271.89C216.47 268.74 213.85 269.8 213.56 271.81C213.27 273.82 213.28 275.81 212.42 277.81C211.191 280.218 210.306 282.786 209.79 285.44C209.22 288.88 207.67 298.19 207.67 298.19C207.67 298.19 191.78 315.93 187.47 320.25C185.34 322.37 180.83 325.83 180.83 325.83L169.09 302.49C169.09 302.49 163.09 281.26 156.75 275.49C153.681 272.707 149.843 270.917 145.739 270.353C141.635 269.789 137.456 270.478 133.75 272.33" stroke="#263238" stroke-miterlimit="10"/>
<path d="M217.38 286C217.188 285.963 217.005 285.888 216.842 285.78C216.68 285.671 216.54 285.532 216.432 285.369C216.324 285.206 216.25 285.023 216.213 284.831C216.177 284.639 216.179 284.441 216.22 284.25L223.29 251.2C223.372 250.828 223.595 250.503 223.912 250.292C224.229 250.081 224.615 250.002 224.99 250.07C225.182 250.107 225.364 250.182 225.527 250.29C225.69 250.399 225.829 250.538 225.937 250.701C226.045 250.864 226.12 251.047 226.156 251.239C226.193 251.431 226.191 251.629 226.15 251.82L219.07 284.82C219.002 285.2 218.785 285.538 218.469 285.759C218.152 285.98 217.76 286.067 217.38 286Z" fill="#263238" stroke="#263238" stroke-miterlimit="10"/>
<path d="M227.049 292.75C227.619 290.75 226.289 281.21 226.289 281.21C226.289 281.21 229.789 276.61 228.649 274.6C227.509 272.59 225.579 273.22 223.579 274.37C221.579 275.52 217.209 278.73 217.209 278.73C217.767 276.489 217.808 274.15 217.329 271.89C216.469 268.74 213.849 269.8 213.559 271.81C213.269 273.82 213.279 275.81 212.419 277.81C211.191 280.218 210.305 282.786 209.789 285.44C209.219 288.88 207.669 298.19 207.669 298.19C207.669 298.19 204.989 301.19 201.529 305.01L212.999 313.46C213.879 311.88 214.479 310.76 214.709 310.26C216.709 305.95 219.879 299.64 219.879 299.64C219.879 299.64 226.479 294.76 227.049 292.75Z" fill="#D4D4D4" stroke="#263238" stroke-miterlimit="10"/>
<path d="M217.209 278.73C217.209 278.73 213.909 281.33 212.959 283.33" stroke="#263238" stroke-miterlimit="10"/>
<path d="M279.83 305.65C279.83 305.65 277.77 316.49 281.12 324.75C284.47 333.01 300.22 362.94 301.25 368.36C302.28 373.78 298.67 382.82 301.51 386.17C304.35 389.52 318.03 390.56 330.93 389.79C343.83 389.02 351.32 387.46 352.87 382.04C354.42 376.62 355.45 373.78 351.58 373.78C347.71 373.78 343.83 374.3 338.67 373.27C333.51 372.24 322.16 365.78 320.61 364.75C319.06 363.72 317.77 360.62 317.77 360.62C317.77 360.62 314.16 350.04 310.54 325.26C306.92 300.48 309.54 289.91 297.9 286.26C286.26 282.61 272.79 297.54 270.24 300.42" fill="#6E6E6E"/>
<path d="M279.83 305.65C279.83 305.65 277.77 316.49 281.12 324.75C284.47 333.01 300.22 362.94 301.25 368.36C302.28 373.78 298.67 382.82 301.51 386.17C304.35 389.52 318.03 390.56 330.93 389.79C343.83 389.02 351.32 387.46 352.87 382.04C354.42 376.62 355.45 373.78 351.58 373.78C347.71 373.78 343.83 374.3 338.67 373.27C333.51 372.24 322.16 365.78 320.61 364.75C319.06 363.72 317.77 360.62 317.77 360.62C317.77 360.62 314.16 350.04 310.54 325.26C306.92 300.48 309.54 289.91 297.9 286.26C286.26 282.61 272.79 297.54 270.24 300.42" stroke="#263238" stroke-miterlimit="10"/>
<path d="M352.87 382C354.42 376.58 355.45 373.74 351.58 373.74C347.71 373.74 343.83 374.26 338.67 373.23C333.51 372.2 322.16 365.74 320.61 364.71C319.06 363.68 317.77 360.58 317.77 360.58C316.337 355.938 315.159 351.221 314.24 346.45C305.15 343.3 298.24 349.28 294.82 353.28C298.14 360.22 300.82 366.19 301.25 368.28C302.25 373.7 298.67 382.74 301.51 386.09C304.35 389.44 318.03 390.48 330.93 389.71C343.83 388.94 351.32 387.46 352.87 382Z" fill="#D4D4D4" stroke="#263238" stroke-miterlimit="10"/>
<path d="M351.58 373.78C347.71 373.78 343.83 374.3 338.67 373.27C333.51 372.24 322.16 365.78 320.61 364.75C319.06 363.72 317.77 360.62 317.77 360.62C317.77 360.62 317.46 359.72 316.94 357.83C307.76 357.27 302.67 361.24 300.01 364.74C300.525 365.909 300.94 367.12 301.25 368.36C302.25 373.78 298.67 382.82 301.51 386.17C304.35 389.52 318.03 390.56 330.93 389.79C343.83 389.02 351.32 387.46 352.87 382.04C354.42 376.62 355.45 373.78 351.58 373.78Z" fill="white" stroke="#263238" stroke-miterlimit="10"/>
<path d="M226.79 435.18H126.26V441.15H226.79V435.18Z" fill="#919191" stroke="#263238" stroke-miterlimit="10"/>
<path d="M213.851 404.32L246.391 468.94C246.631 469.42 246.744 469.953 246.721 470.489C246.697 471.025 246.537 471.546 246.256 472.003C245.974 472.459 245.581 472.837 245.113 473.099C244.644 473.361 244.117 473.499 243.581 473.5C243.018 473.499 242.466 473.348 241.983 473.061C241.499 472.774 241.101 472.363 240.831 471.87L204.891 406.31L213.851 404.32Z" fill="#919191" stroke="#263238" stroke-miterlimit="10"/>
<path d="M141 387.08L111.41 469.5C111.216 470.001 111.153 470.542 111.228 471.074C111.303 471.606 111.513 472.109 111.838 472.536C112.163 472.964 112.592 473.301 113.084 473.515C113.577 473.729 114.116 473.813 114.65 473.76C115.211 473.707 115.748 473.503 116.204 473.171C116.66 472.838 117.018 472.389 117.24 471.87L150.06 388.18L141 387.08Z" fill="#919191" stroke="#263238" stroke-miterlimit="10"/>
<path d="M132.73 288.37C132.73 288.37 118.8 269.46 112.83 270.45C106.86 271.44 100.83 313.75 107.83 342.12C114.83 370.49 139.21 399.81 173 408.8C212.32 419.25 245.87 400.8 246.16 397.36C246.45 393.92 209.87 379.94 132.73 288.37Z" fill="#D4D4D4"/>
<path opacity="0.29" d="M173 408.8C212.32 419.25 245.87 400.8 246.16 397.36C246.28 395.91 240.04 392.66 227.16 382.82C162.63 385.11 125.06 359.57 108.26 343.93C115.87 371.72 139.93 400 173 408.8Z" fill="black"/>
<path d="M132.73 288.37C132.73 288.37 118.8 269.46 112.83 270.45C106.86 271.44 100.83 313.75 107.83 342.12C114.83 370.49 139.21 399.81 173 408.8C212.32 419.25 245.87 400.8 246.16 397.36C246.45 393.92 209.87 379.94 132.73 288.37Z" stroke="#263238" stroke-miterlimit="10"/>
<path d="M424.86 432C424.86 432 413.36 427.9 386.54 426C359.72 424.1 334.29 427 333.29 429.49C332.53 431.39 336.43 456.29 338.29 467.89C338.554 469.533 339.395 471.028 340.661 472.107C341.927 473.187 343.536 473.78 345.2 473.78H418.35C420.023 473.78 421.641 473.181 422.91 472.092C424.18 471.002 425.017 469.494 425.27 467.84L429.71 438.92C429.982 437.38 429.641 435.795 428.761 434.503C427.882 433.21 426.532 432.312 425 432H424.86Z" fill="#D4D4D4"/>
<path opacity="0.29" d="M423.59 471.42C388.12 471.5 369.24 453.83 360.31 438.35C356.83 432.35 351.16 428.71 345.31 426.58C338.23 427.37 333.67 428.46 333.31 429.49C332.55 431.39 336.45 456.29 338.31 467.89C338.574 469.533 339.414 471.028 340.68 472.107C341.947 473.187 343.556 473.78 345.22 473.78H418.37C419.357 473.777 420.333 473.565 421.232 473.158C422.132 472.752 422.935 472.159 423.59 471.42Z" fill="black"/>
<path d="M424.86 432C424.86 432 413.36 427.9 386.54 426C359.72 424.1 334.29 427 333.29 429.49C332.53 431.39 336.43 456.29 338.29 467.89C338.554 469.533 339.395 471.028 340.661 472.107C341.927 473.187 343.536 473.78 345.2 473.78H418.35C420.023 473.78 421.641 473.181 422.91 472.092C424.18 471.002 425.017 469.494 425.27 467.84L429.71 438.92C429.982 437.38 429.641 435.795 428.761 434.503C427.882 433.21 426.532 432.312 425 432H424.86Z" stroke="#263238" stroke-miterlimit="10"/>
<path d="M458.369 473.78H478.369" stroke="#263238" stroke-miterlimit="10"/>
<path d="M18.1094 473.78H450.029" stroke="#263238" stroke-miterlimit="10"/>
</svg>
