<svg width="140" height="140" viewBox="0 0 140 140" fill="none" xmlns="http://www.w3.org/2000/svg">
<path d="M16.4688 0V140H123.527V0H16.4688ZM117.536 134.009H22.4598V5.9864H117.536V134.009Z" fill="black"/>
<path d="M65.0243 57.7695L69.9518 44.8074L83.6941 43.0148L73.3468 29.932L54.6816 44.6867L65.0243 57.7695Z" fill="black"/>
<path d="M41.6117 56.8173L53.5241 45.1464L36.8746 28.1486L24.9668 39.8148L38.3747 43.3398L41.6117 56.8173Z" fill="black"/>
<path d="M54.6805 36.0577C60.4765 36.0577 65.1858 31.3485 65.1858 25.5525C65.1858 19.7565 60.4765 15.038 54.6805 15.038C48.8845 15.038 44.166 19.7565 44.166 25.5525C44.166 31.3485 48.8799 36.0577 54.6805 36.0577ZM52.1727 21.9439L54.6759 16.8724L57.1791 21.9439L62.7847 22.7567L58.7303 26.7042L59.687 32.2727L54.6805 29.644L49.6787 32.2727L50.6308 26.7042L46.581 22.752L52.1727 21.9439Z" fill="black"/>
<path d="M54.6666 38.2405C61.7212 38.2405 67.4382 32.5327 67.4382 25.4874C67.4382 18.4236 61.7165 12.7112 54.6666 12.7112C47.6213 12.7112 41.9043 18.4282 41.9043 25.4874C41.9089 32.5327 47.6213 38.2405 54.6666 38.2405ZM54.6805 14.332C60.8666 14.332 65.8963 19.3663 65.8963 25.5524C65.8963 31.7339 60.8666 36.7682 54.6805 36.7682C48.4898 36.7682 43.4601 31.7339 43.4601 25.5524C43.4601 19.3663 48.4898 14.332 54.6805 14.332Z" fill="black"/>
<path d="M106.985 68.5022H33.123V73.3183H106.985V68.5022Z" fill="black"/>
<path d="M106.985 78.9796H33.123V83.8003H106.985V78.9796Z" fill="black"/>
<path d="M106.985 90.2094H33.123V95.0301H106.985V90.2094Z" fill="black"/>
<path d="M106.985 100.696H33.123V105.512H106.985V100.696Z" fill="black"/>
<path d="M72.4224 111.661H33.123V116.477H72.4224V111.661Z" fill="black"/>
</svg>
