<svg width="140" height="140" viewBox="0 0 140 140" fill="none" xmlns="http://www.w3.org/2000/svg">
<g clip-path="url(#clip0_365_2)">
<path d="M138.225 130.042L93.5235 85.3404C100.744 76.3476 105.066 64.9291 105.066 52.5C105.066 23.5066 81.5598 0 52.5664 0C23.573 0 0.0664062 23.5066 0.0664062 52.5C0.0664062 81.4934 23.573 105 52.5664 105C64.9277 105 76.2896 100.725 85.2594 93.5758L129.975 138.292C132.253 140.57 135.947 140.57 138.225 138.292C140.503 136.013 140.503 132.32 138.225 130.042ZM11.7334 52.5C11.7334 29.9499 30.0168 11.6668 52.5667 11.6668C75.1165 11.6668 93.4002 29.9499 93.4002 52.5C93.4002 63.8077 88.8021 74.0422 81.3744 81.4368C81.3739 81.4373 81.3731 81.4379 81.3725 81.4387C81.3722 81.439 81.3717 81.4395 81.3714 81.4401C73.9872 88.7898 63.8074 93.3335 52.567 93.3335C30.0168 93.3333 11.7334 75.0501 11.7334 52.5Z" fill="black"/>
</g>
<defs>
<clipPath id="clip0_365_2">
<rect width="140" height="140" fill="white"/>
</clipPath>
</defs>
</svg>
