<svg width="70" height="70" viewBox="0 0 70 70" fill="none" xmlns="http://www.w3.org/2000/svg">
<g clip-path="url(#clip0_131_18)">
<path d="M69.1124 65.021L46.7616 42.6702C50.3717 38.1738 52.5331 32.4646 52.5331 26.25C52.5331 11.7533 40.7798 0 26.2831 0C11.7864 0 0.0330811 11.7533 0.0330811 26.25C0.0330811 40.7467 11.7864 52.5 26.2831 52.5C32.4637 52.5 38.1447 50.3624 42.6296 46.7879L64.9875 69.1458C66.1265 70.2848 67.9733 70.2848 69.1123 69.1458C70.2516 68.0066 70.2516 66.16 69.1124 65.021ZM5.8666 26.25C5.8666 14.9749 15.0083 5.83338 26.2832 5.83338C37.5581 5.83338 46.7 14.9749 46.7 26.25C46.7 31.9039 44.4009 37.0211 40.6871 40.7184C40.6868 40.7187 40.6864 40.7189 40.6861 40.7194C40.686 40.7195 40.6857 40.7198 40.6856 40.72C36.9935 44.3949 31.9036 46.6668 26.2834 46.6668C15.0083 46.6666 5.8666 37.5251 5.8666 26.25Z" fill="white"/>
</g>
<defs>
<clipPath id="clip0_131_18">
<rect width="70" height="70" fill="white"/>
</clipPath>
</defs>
</svg>
