<svg width="150" height="150" viewBox="0 0 150 150" fill="none" xmlns="http://www.w3.org/2000/svg">
<path d="M75 65.937C93.1792 65.937 107.969 51.1476 107.969 32.9685C107.969 14.7893 93.1792 0 75 0C56.8208 0 42.031 14.7893 42.031 32.9685C42.031 51.1476 56.8208 65.937 75 65.937ZM75 15.7618C84.4881 15.7618 92.2072 23.4804 92.2072 32.9685C92.2072 42.4566 84.4881 50.1751 75 50.1751C65.5119 50.1751 57.7928 42.4566 57.7928 32.9685C57.7928 23.4804 65.5119 15.7618 75 15.7618Z" fill="black"/>
<path d="M75 81.6987C41.6843 81.6987 14.5797 108.803 14.5797 142.119C14.5797 146.471 18.1083 150 22.4606 150H127.539C131.892 150 135.42 146.471 135.42 142.119C135.42 108.803 108.316 81.6987 75 81.6987ZM31.0377 134.238C34.7711 113.36 53.0638 97.4606 75 97.4606C96.9363 97.4606 115.229 113.36 118.962 134.238H31.0377Z" fill="black"/>
</svg>
